<svg id="logo" width="35vw" height="100%" viewBox="0 0 88 88" fill="none" xmlns="http://www.w3.org/2000/svg"><path fill-rule="evenodd" clip-rule="evenodd" d="M60.5224 60.4742h2.0033V59.888H60.5224V60.4742zM60.5471 55.4428v4.2259L62.11 59.6928 62.1587 59.644 62.1842 59.5705 62.2082 59.4234 62.2329 59.2536 62.257 59.0825V58.9107L62.2329 58.7643 62.2082 58.642 62.0859 58.4221 61.9148 58.2269 61.769 58.1052 61.7196 58.0317 61.769 57.8853 61.8419 57.4448 61.8172 57.275 61.7931 57.1039 61.7196 56.9328 61.622 56.7864 61.4997 56.6641 61.4021 56.5417 61.2557 56.4435 61.1334 56.3465V56.2483L61.0605 55.9555 61.011 55.8579 60.9375 55.7603 60.8646 55.6621 60.767 55.5892 60.6207 55.4916 60.5471 55.4428zM60.4495 49.9716H60.8894V49.4101H60.4495V49.9716zm.0488 2.1003H60.8894V51.511H60.4983V52.0719zM60.4743 49.3118V49.0679H60.5712V48.9703L60.5966 48.7751 60.6447 48.604 60.6935 48.5311 60.767 48.4576 60.8646 48.384 60.9622 48.3359 61.1334 48.2377 61.2804 48.1407 61.3038 48.0177 61.2804 47.9449H61.3038L61.3285 47.9201H61.4021L61.4509 47.9449 61.4756 47.9696 61.5237 47.9937 61.5739 48.0913V48.3105L61.5485 48.384 61.4509 48.5311 61.378 48.5799 61.3285 48.6528 61.2557 48.751 61.2069 48.8727 61.1574 49.0438 61.0846 49.1902l-.0488.0488L60.9622 49.2878 60.8894 49.3118H60.4743zM58.4709 49.0679v.1952L58.3486 49.2878 58.1534 49.2631 58.0558 49.239 57.9335 49.1902 57.8119 49.1421 57.7143 49.0679 57.6655 48.995l-.0488-.0488L57.5913 48.8967V48.7751L57.6167 48.7263 57.6655 48.6768 57.7383 48.6287 57.8119 48.5799V48.4576L57.8607 48.384 57.9582 48.3105 58.0318 48.2865H58.2517L58.3246 48.3105v.7333L58.4709 49.0679zM58.4469 53.1474 58.4709 52.1948H57.4696L57.4943 52.2182 57.5184 52.2918 57.5672 52.39 57.6407 52.4876 57.7383 52.5612 57.8119 52.634 58.0077 52.7804 58.2029 52.878 58.3734 53.0491 58.4469 53.1474zm-3.0287.0V52.1948h1.002L56.3948 52.2182 56.3707 52.2918 56.3219 52.39 56.249 52.4876 56.1508 52.5612 56.0779 52.634 55.8821 52.7804 55.6869 52.878 55.5158 53.0244 55.4182 53.1474zm0-1.0755h3.0527V51.511H55.4182V52.0719zM55.4182 51.364h3.0527V50.1675H55.4182V51.364zm-2.2226-2.6872V48.4576H53.1221L53.098 48.36v-.1952L53.0245 47.9937 52.7317 47.7497 52.463 47.5545 52.4877 47.4315 52.5118 47.3587 52.463 47.3339h-.0488L52.3406 47.3587 52.2918 47.3827 52.2183 47.4074l-.0488.0488L52.1214 47.5291 52.0967 47.5779V47.6514L52.2437 47.9696 52.463 48.2617 52.5118 48.4328 52.5846 48.5799 52.6582 48.6287 52.7076 48.6768 52.8045 48.7016H52.9028L53.1956 48.6768zm1.1477-3.6871H54.4416L54.4904 45.0378 54.5632 45.0873 54.6113 45.1608 54.7103 45.3313 54.7584 45.4777 54.8072 45.6976V45.7958L54.8814 45.8687 54.9783 45.9416 55.0518 46.0391 55.1007 46.1367 55.1247 46.235 55.1494 46.3573 55.1247 46.4302 55.0766 46.5278 55.0024 46.6013 54.9783 46.6742V46.6989L54.9295 46.723H54.8814L54.3192 46.6989H53.6601V46.6742L53.6354 46.6501v-.0488L53.5619 46.503 53.5131 46.4302 53.489 46.3319V46.235L53.5372 46.1367 53.5866 46.0151 53.6601 45.9168 53.733 45.844 53.8306 45.7958V45.6728L53.8801 45.4536 53.9282 45.3065 54.0258 45.1608 54.0753 45.0873 54.1234 45.0138 54.1969 44.9897 54.2704 44.965H54.3433V44.9897zm-3.7854 7.1316H49.5318v1.0013H49.6047L49.703 53.0732 49.7518 52.9763 49.8246 52.8051 49.8741 52.7316 49.9717 52.6828 50.094 52.634 50.2157 52.5364 50.338 52.4629 50.4356 52.3653 50.5091 52.2677 50.582 52.1948V52.1454L50.5579 52.1213zm4.8603-2.1497h3.0527V49.4101H55.4182V49.9716zM55.4182 49.3118H55.7604V48.8239H55.4182V49.3118zM55.4182 48.6768 55.3934 48.4576H55.4917L55.5158 48.36v-.1952L55.5645 47.9937 55.8821 47.7497 56.1508 47.5545 56.1267 47.4315 56.0779 47.3587H56.102L56.1508 47.3339h.0488L56.2731 47.3587 56.3219 47.3827 56.3948 47.4074 56.4442 47.4562 56.493 47.5291 56.5171 47.5779V47.6514L56.3466 47.9696 56.1508 48.2617 56.102 48.4328 56.0291 48.5799 55.9556 48.6287 55.8821 48.6768 55.8085 48.7016H55.7109L55.4182 48.6768zm3.9565-2.6129H59.497L59.5699 46.0879 59.6681 46.1367 59.741 46.235 59.7657 46.3079 59.8633 46.479l.0488.1952L59.9362 46.7965 59.9863 46.8453 60.0592 46.8941 60.1073 46.9683 60.132 47.0164 60.1561 47.0893V47.1635L60.132 47.2611 60.0104 47.3827 59.9863 47.4315V47.4562L60.0104 47.4803 60.0344 47.5291 60.0592 47.5779V47.6514L60.0344 47.6762H58.8379L58.8139 47.6514V47.5779L58.862 47.4803 58.8867 47.4562 58.862 47.4315v-.0488L58.8139 47.3339 58.7397 47.2611 58.7156 47.1635V47.0164L58.7637 46.9683 58.8139 46.8941 58.862 46.8453 58.9355 46.7965 58.9596 46.6742 59.009 46.479 59.0819 46.3079 59.1307 46.235 59.2042 46.1367 59.3018 46.0879 59.3747 46.0639zM58.5685 47.8226 58.4957 47.8473 58.4709 47.8954v.9285L58.4957 48.8727 58.5685 48.8967h1.7587L60.4007 48.8727 60.4255 48.8239v-.9285L60.4007 47.8473 60.3272 47.8226H58.5685zM58.6668 49.0679V49.6782L58.7156 49.7029V60.4007h1.5628V49.0679H58.6668zM53.3179 46.87 53.2938 46.8941H53.2691L53.2444 46.9435v1.2454L53.2691 48.2136 53.2938 48.2377 53.3179 48.2617h2.0027L55.3446 48.2377 55.3694 48.2136 55.3934 48.1889V46.9435L55.3694 46.8941H55.3446L55.3206 46.87H53.3179zm.1464 13.5801h1.6604V48.5552H53.4643V60.4501zm-1.3188-8.3288h1.0253v1.0013H53.098L52.9997 53.0732 52.9509 52.9763 52.8781 52.8051 52.8286 52.7316 52.7317 52.6828 52.6094 52.634 52.4877 52.5364 52.3654 52.4629 52.2678 52.3653 52.1943 52.2677 52.1214 52.1948V52.1454L52.1455 52.1213zM49.5318 51.8519h3.639V51.3152h-3.639V51.8519zM49.5318 51.1441h3.639V49.5324h-3.639v1.6117zm0-1.8069h3.639V48.7751h-3.639V49.3372zM49.5318 48.6528h.5381V47.9696h-.5381V48.6528zM49.6047 47.0411H49.6789L49.8006 46.9683 49.9229 46.8453 50.0205 46.723 50.1669 46.6501 50.3627 46.6254 50.4356 46.6013 50.5091 46.5525 50.5579 46.503 50.582 46.4549 50.5579 46.3814 50.5091 46.3079 50.5579 46.3319 50.582 46.3079 50.6308 46.2838 50.729 46.2591 50.826 46.3079 50.9001 46.4061 50.973 46.479V46.5772L50.9483 46.6742 50.8507 46.8212 50.729 46.9435 50.582 47.0652 50.5091 47.1387l-.0488.1464L50.3868 47.4803 50.338 47.5779 50.2651 47.6762 50.1669 47.7243 50.0699 47.7497H49.6047V47.0411zm-1.2206-3.8589L48.4817 43.2063 48.5552 43.231 48.6281 43.3039 48.6776 43.3774 48.7992 43.5238 48.8728 43.6949 48.9215 43.9636V44.0853L49.0185 44.1588 49.1167 44.2323 49.1903 44.3293 49.2384 44.4275 49.2631 44.5251V44.6474L49.2384 44.7444 49.1903 44.8426 49.1415 44.9897V45.1113L49.1167 45.1354 49.0927 45.1608H47.578L47.5539 45.1354 47.5292 45.1113V44.9897L47.4811 44.8426 47.4309 44.7444 47.4069 44.6474V44.5251L47.4309 44.4275 47.4811 44.3293 47.5539 44.2323 47.6268 44.1588 47.7491 44.0853V43.9636L47.7979 43.6949 47.8708 43.5238 47.969 43.3774 48.0419 43.3039 48.1154 43.231 48.1889 43.2063 48.2865 43.1822H48.3841zm-1.1484 2.1491h2.1985L49.4837 45.356 49.5078 45.3807 49.5318 45.4048v1.3676L49.5078 46.8212H49.4837L49.4342 46.8453H47.2357L47.2117 46.8212h-.0488v-.0488L47.1381 46.7484V45.4289L47.1629 45.4048V45.3807L47.2117 45.356 47.2357 45.3313zm.1952 15.0934h1.8075V47.0652H47.4309V60.4247zm-.2928-12.6269V47.114L47.1141 47.0893 47.0165 46.9923 46.8447 46.7724 46.6742 46.5772 46.5766 46.503 46.4543 46.479 46.3327 46.503 46.1856 46.5525 46.0392 46.7724 45.9176 47.0411V47.2116L45.9416 47.3092 45.9904 47.4074 46.0633 47.4803 46.1368 47.5779 46.2344 47.6514 46.5038 47.7243 46.7966 47.7738 47.0405 47.7978H47.1381zm-1.27 4.0789L47.09 51.9014v1.123H47.0165L46.8694 52.9515 46.7966 52.878 46.7478 52.8051 46.723 52.7316 46.699 52.6581V52.5852L46.6742 52.5364 46.6014 52.5117 46.4296 52.4629 46.3086 52.4141 46.2103 52.3412 46.1128 52.243 46.0392 52.1454 45.9176 51.9749 45.8681 51.8767zM25.3522 60.4742h2.0027V59.888H25.3522V60.4742zM27.3301 55.4428v4.2259L25.7914 59.6928 25.7433 59.644 25.6938 59.5705 25.6697 59.4234 25.645 59.2536v-.4893L25.6938 58.642 25.8161 58.4221l.1464-.1952L26.1096 58.1052 26.1584 58.0317l-.0488-.1464L26.036 57.4448 26.0601 57.275 26.1096 57.1039 26.1584 56.9328 26.2559 56.7864 26.3776 56.6641 26.4999 56.5417 26.6223 56.4435 26.7439 56.3465V56.2483L26.8174 55.9555 26.8662 55.8579 26.9398 55.7603 27.0126 55.6621 27.1109 55.5892 27.282 55.4916 27.3301 55.4428zm-.3415-5.4712H27.4525V49.4101H26.9886V49.9716zm0 2.1003h.3903V51.511h-.3903V52.0719zM27.4037 49.3118V49.0679H27.3301L27.3061 48.9703 27.282 48.7751 27.2325 48.604 27.1837 48.5311 27.1109 48.4576 27.0126 48.384 26.9398 48.3359 26.7439 48.2377 26.5975 48.1407 26.5728 48.0177 26.5975 47.9449H26.5728L26.5487 47.9201H26.4759L26.4518 47.9449 26.4023 47.9696 26.3535 47.9937 26.3047 48.0913V48.3105L26.3535 48.384 26.3776 48.4576 26.4518 48.5311 26.4999 48.5799 26.5487 48.6528 26.6223 48.751 26.6711 48.8727 26.7198 49.0438 26.7927 49.1902 26.8662 49.239l.0488.0488L27.0126 49.3118H27.4037zM29.4063 49.0679v.1952L29.5286 49.2878 29.7238 49.2631 29.8221 49.239 29.9438 49.1902 30.0661 49.1421 30.1637 49.0679 30.2372 48.995 30.2619 48.9462 30.286 48.8967V48.7751L30.2619 48.7263 30.2125 48.6768 30.1389 48.6287 30.0661 48.5799V48.4576L30.0173 48.384 29.919 48.3105 29.8709 48.2865H29.6262L29.5527 48.3105 29.5774 49.0438 29.4063 49.0679zM29.4311 53.1474V52.1948H30.4077V52.2182L30.3589 52.2918 30.3101 52.39 30.2372 52.4876 30.1637 52.5612 30.0661 52.634l-.1952.1464L29.6757 52.878 29.5039 53.0491 29.4311 53.1474zm3.0287.0V52.1948h-.9773V52.2182L31.5066 52.2918 31.5801 52.39 31.6536 52.4876 31.7265 52.5612 31.8248 52.634l.1951.1464L32.2158 52.878 32.3615 53.0244 32.4598 53.1474zm-3.0535-1.0755h3.0535V51.511H29.4063V52.0719zM29.4063 51.364h3.0535V50.1675H29.4063V51.364zm5.2761-2.6872V48.4576H34.7552L34.7799 48.36 34.8047 48.1648 34.8528 47.9937l.2928-.244L35.415 47.5545 35.3909 47.4315 35.3655 47.3587 35.415 47.3339h.0488L35.5366 47.3587 35.6102 47.3827 35.659 47.4074 35.7077 47.4562 35.7565 47.5291 35.7813 47.5779 35.806 47.6514 35.6349 47.9696 35.415 48.2617 35.3655 48.4328 35.2926 48.5799l-.0488.0488L35.1703 48.6768 35.0727 48.7016H34.9751L34.6824 48.6768zM33.558 44.9897H33.4611L33.3876 45.0378 33.3147 45.0873 33.2653 45.1608 33.1924 45.3313 33.1189 45.4777 33.0701 45.6976V45.7958L32.9972 45.8687 32.8989 45.9416 32.8508 46.0391 32.7766 46.1367 32.7519 46.235 32.7285 46.3573 32.7519 46.4302 32.802 46.5278 32.8749 46.6013 32.8989 46.6742V46.6989H32.9237L32.9477 46.723H32.9972L33.558 46.6989H34.2185L34.2425 46.6742V46.6013L34.3154 46.503 34.3642 46.4302 34.3896 46.3319V46.235L34.3401 46.1367 34.2913 46.0151 34.2185 45.9168 34.1443 45.844 34.0714 45.7958 34.0473 45.6728 33.9985 45.4536 33.9491 45.3065 33.8762 45.1608 33.8034 45.0873 33.7539 45.0138 33.681 44.9897 33.6075 44.965H33.558V44.9897zm3.7614 7.1316h1.026L38.3702 53.0986 38.3454 53.1226H38.2726L38.175 53.0732 38.1255 52.9763 38.0767 52.8051 38.0039 52.7316 37.9056 52.6828 37.7839 52.634 37.6623 52.5364 37.5393 52.4629 37.4424 52.3653 37.3695 52.2677 37.3194 52.1948 37.2953 52.1454 37.3194 52.1213zm-7.9131-2.1497h3.0535V49.4101H29.4063V49.9716zM32.1175 49.3118H32.4598V48.8239H32.1175V49.3118zM32.4598 48.6768 32.4838 48.4576H32.3856V48.36L32.3615 48.1648 32.3127 47.9937 31.9952 47.7497l-.244-.1952V47.4315L31.8 47.3587H31.7753L31.7512 47.3339H31.6777L31.6048 47.3587 31.5554 47.3827 31.4825 47.4074l-.0488.0488L31.3843 47.5291 31.3602 47.5779V47.6514L31.5313 47.9696 31.7265 48.2617 31.7753 48.4328 31.8735 48.5799l.0488.0488L31.9952 48.6768 32.0687 48.7016H32.1663L32.4598 48.6768zm-3.9565-2.6129H28.3803L28.3074 46.0879 28.2339 46.1367 28.1363 46.235 28.1122 46.3079 28.0387 46.479 27.9652 46.6742V46.7965L27.8923 46.8453 27.8188 46.8941 27.77 46.9683 27.7452 47.0164 27.7212 47.0893V47.1635L27.77 47.2611 27.8188 47.3339 27.8682 47.3827 27.8923 47.4315v.0488l-.0488.0488L27.8188 47.5779 27.8435 47.6514V47.6762H29.04L29.0647 47.6514V47.5779L29.0153 47.4803v-.0488L29.0647 47.3339 29.1376 47.2611 29.1623 47.1635V47.0164L29.1135 46.9683 29.0647 46.8941 29.0153 46.8453 28.9424 46.7965 28.9177 46.6742 28.8696 46.479 28.796 46.3079 28.7466 46.235 28.6737 46.1367 28.5761 46.0879 28.5033 46.0639zm.8295 1.7587L29.3816 47.8473 29.4063 47.8954v.9285L29.3816 48.8727 29.3328 48.8967H27.5501L27.5019 48.8727 27.4772 48.8239v-.9285L27.5019 47.8473 27.5501 47.8226h1.7827zM29.2105 49.0679V49.6782L29.1623 49.7029V60.4007H27.5989V49.0679h1.6116zM34.5594 46.87 34.5848 46.8941H34.6088L34.6336 46.9435v1.2454l-.0488.0488L34.5594 48.2617H32.5814L32.5326 48.2377l-.0488-.0488V46.9435L32.5086 46.8941H32.5326L32.5814 46.87H34.5594zM32.7519 60.4501h1.6617V48.5552H32.7519V60.4501zm3.0046-8.3288H34.7064v1.0013H34.8047L34.8775 53.0732 34.9257 52.9763 34.9999 52.8051 35.0487 52.7316 35.1456 52.6828 35.2686 52.634 35.3909 52.5364 35.5126 52.4629 35.7077 52.2677 35.7565 52.1948 35.7813 52.1454 35.7565 52.1213zM34.7064 51.8519h3.6638V51.3152H34.7064V51.8519zM34.7305 51.1441h3.6149V49.5324H34.7305v1.6117zM34.7064 49.3372h3.639V48.7751h-3.639V49.3372zM37.8087 48.6528H38.3454V47.9696H37.8087V48.6528zM38.2726 47.0411H38.199L38.0767 46.9683 37.9798 46.8453 37.8575 46.723 37.7104 46.6501 37.5393 46.6254 37.4424 46.6013 37.3695 46.5525 37.3194 46.503 37.2953 46.4549 37.3194 46.3814 37.3695 46.3079 37.3441 46.3319 37.2465 46.2838 37.1489 46.2591 37.0754 46.3079 36.9785 46.4061 36.929 46.479 36.9043 46.5278 36.929 46.5772 36.9531 46.6742 37.0266 46.8212 37.1489 46.9435 37.2953 47.0652 37.3695 47.1387 37.4176 47.2851 37.4905 47.4803 37.5393 47.5779 37.6128 47.6762 37.7104 47.7243 37.8087 47.7497H38.2726V47.0411zm1.2212-3.8589L39.421 43.2063 39.3227 43.231 39.2492 43.3039 39.201 43.3774 39.1028 43.5238 39.0299 43.6949 38.9564 43.9636V44.0853L38.7612 44.2323 38.7117 44.3293 38.6629 44.4275 38.6148 44.5251V44.6474L38.6389 44.7444 38.7117 44.8426 38.7612 44.9897V45.1354L38.7853 45.1608h1.514L40.3488 45.1354V44.9897L40.3975 44.8426 40.4457 44.7444 40.4704 44.6474V44.5251L40.4457 44.4275 40.3975 44.3293 40.324 44.2323 40.2505 44.1588 40.1529 44.0853 40.1282 43.9636 40.0794 43.6949 40.0065 43.5238 39.9089 43.3774 39.8361 43.3039 39.7625 43.231 39.689 43.2063 39.6161 43.1822H39.4938zm1.1477 2.1491H38.4437L38.3949 45.356 38.3702 45.3807 38.3454 45.4048v1.3676L38.3702 46.8212H38.3949L38.4437 46.8453h2.1978L40.6903 46.8212H40.7144L40.7391 46.7724V45.4048L40.7144 45.3807 40.6903 45.356 40.6415 45.3313zM38.6389 60.4247h1.8068V47.0652H38.6389V60.4247zm2.1002-12.6269V47.114L40.7886 47.0893 40.8615 46.9923 41.0326 46.7724 41.2037 46.5772 41.3006 46.503 41.4229 46.479 41.5453 46.503 41.6917 46.5525 41.8381 46.7724 41.961 47.0411 41.9851 47.0652V47.1387L41.961 47.2116 41.9363 47.3092 41.8875 47.4074 41.814 47.4803 41.7411 47.5779 41.6429 47.6514 41.3748 47.7243 41.0814 47.7738 40.8367 47.7978H40.7391zm1.2707 4.0789L40.7886 51.9014v1.123H40.8615L41.0078 52.9515 41.0814 52.878 41.1302 52.8051 41.1549 52.7316 41.179 52.6581V52.5852L41.2037 52.5364 41.2766 52.5117 41.4477 52.4629 41.57 52.4141 41.6676 52.3412 41.7652 52.243 41.8628 52.1454 41.9851 51.9749 42.0098 51.8767zm5.1283-3.9318h-6.399V48.604h6.399V47.9449zm0 3.1504h-6.399V51.755h6.399V51.0953zm0-2.2714h-6.399v2.0026h6.399V48.8239zM22.9585 60.67H65.3593L61.9636 64.162H25.4745l-2.516-3.492z" fill="#144e8c"/><path fill-rule="evenodd" clip-rule="evenodd" d="M40.9588 31.0921 40.7884 31.1897 40.6172 31.2632 40.4949 31.3608 40.3485 31.4584 40.1279 31.6783 39.9575 31.8735 39.7864 32.0439 39.64 32.2645 39.4936 32.5332 39.396 32.8254 39.3225 32.8755 39.2489 32.8996 39.1025 32.9236 38.8826 32.9724 38.6146 33.0212 38.3211 33.0459H38.0284L37.7596 33.0212 37.5391 32.9483 37.3439 32.8755 36.9528 32.6302 36.5137 32.2893 36.2937 32.1663 36.0498 32.0199 35.8058 31.9223 35.5611 31.8 35.1454 31.6536 34.9749 31.6048 35.0725 31.5072 35.3412 31.2632 35.6347 30.9457 35.8786 30.6516 36.0498 30.3835 36.1962 30.1155 36.2697 29.9684 36.3673 29.8461 36.4889 29.6997 36.6113 29.5774 36.7576 29.4551 36.904 29.3581 37.0511 29.2599 37.2222 29.1623l.1952-.0488L37.6373 29.04 37.9054 29.0159 38.1988 28.9912 38.5163 28.9671 38.785 29.0159 39.0297 29.0647 39.2489 29.1382 39.4689 29.2358 39.664 29.3581l.1952.1464L40.0551 29.6509 40.2503 29.822 40.4214 30.0413 40.5684 30.2612 40.6901 30.5059 40.8612 30.8969 40.91 31.0673 40.9588 31.0921zM41.4474 27.7706 41.5945 27.7946 41.7155 27.8187 41.8378 27.8929 41.9361 27.9658 42.0096 28.0881 42.0825 28.1857 42.1065 28.3321 42.1313 28.4537 42.1065 28.6001 42.0825 28.7231 42.0096 28.8448 41.9361 28.943 41.8378 29.04 41.5945 29.1382H41.3004L41.1787 29.0894 41.0564 29.04 40.9588 28.943 40.8853 28.8448 40.8124 28.7231 40.7636 28.6001V28.3321l.0488-.1464L40.8853 28.0881 40.9588 27.9658 41.0564 27.8929 41.1787 27.8187 41.3004 27.7946 41.4474 27.7706zm5.3001 3.3215L46.8204 31.0673 46.8692 30.8969 47.0403 30.5059 47.1626 30.2612 47.3097 30.0413 47.4808 29.822 47.6753 29.6509l.1952-.1464L48.0664 29.3581 48.2616 29.2358 48.4567 29.1382 48.6773 29.0647 49.2141 28.9671 49.5316 28.9912 49.8244 29.0159 50.0938 29.04 50.3137 29.1135l.1952.0488L50.68 29.2599 50.8257 29.3581 50.9728 29.4551 51.1198 29.5774 51.2408 29.6997 51.3391 29.8461 51.4367 29.9684 51.5349 30.1155 51.8277 30.6516l.244.2941L52.6332 31.5072 52.7555 31.6048 52.5844 31.6536 52.1693 31.8 51.9253 31.9223 51.6566 32.0199 51.4119 32.1663 51.2168 32.2893 50.7529 32.6302l-.3904.2453L50.1666 32.9483 49.9474 33.0212 49.7027 33.0459H49.3852L49.1165 33.0212 48.8478 32.9724 48.6279 32.9236 48.4567 32.8996 48.408 32.8755 48.3351 32.8254 48.2128 32.5332 48.0911 32.2645 47.92 32.0439 47.7736 31.8735 47.5777 31.6783 47.3578 31.4584 47.2355 31.3608 47.0898 31.2632 46.7475 31.0921zM46.283 27.7706 46.4053 27.7946 46.5517 27.8187 46.6493 27.8929 46.7475 27.9658 46.8445 28.0881 46.8946 28.1857 46.9427 28.3321 46.9675 28.4537 46.9427 28.6001 46.8946 28.7231 46.8445 28.8448 46.7475 28.943 46.6493 29.04 46.5517 29.0894l-.1464.0488H46.1366L46.0149 29.0894 45.8926 29.04 45.795 28.943 45.6974 28.8448 45.6479 28.7231 45.5992 28.6001V28.3321L45.6479 28.1857 45.6974 28.0881 45.795 27.9658 45.8926 27.8929 46.0149 27.8187 46.1366 27.7946 46.283 27.7706zm-2.4178 8.3769-.1952-.1952L43.3772 35.6836 43.0591 35.3908 42.7422 35.1221 42.5952 35.0493 42.424 34.9757 42.2289 34.9263 42.0096 34.8534 41.545 34.7558 41.1299 34.6335 40.9835 34.6088 40.8612 34.5359 40.7636 34.463 40.6413 34.3888 40.4702 34.1937 40.3238 33.9737 40.2021 33.7545 40.1279 33.5346 40.1039 33.3147 40.1279 33.1188 40.1774 32.9483 40.2503 32.7772 40.3238 32.6302 40.3973 32.4844 40.5925 32.2398 40.6901 32.1422 40.8124 32.0439 40.9347 31.9711 41.0564 31.8982 41.1787 31.8488l.1464-.0488L41.5945 31.7271H41.8873L42.1065 31.7512 42.3512 31.8247 42.5952 31.9223 42.8151 32.0199 43.2549 32.2893 43.5724 32.5332 43.67 32.582 43.7436 32.6061H43.9628L44.0604 32.582 44.1346 32.5332 44.4755 32.2893 44.8906 32.0199 45.1359 31.9223 45.3799 31.8247 45.5992 31.7512 45.8191 31.7271H46.1125L46.4053 31.8 46.5283 31.8488 46.6493 31.8982 46.7963 31.9711 46.9187 32.0439 47.0163 32.1422 47.1379 32.2398 47.2355 32.3621 47.3338 32.4844 47.4066 32.6302 47.4808 32.7772 47.5537 32.9483 47.6025 33.1188 47.6265 33.3147 47.5289 33.7545 47.4066 33.9737 47.2602 34.1937 47.0644 34.3888 46.9675 34.463 46.8445 34.5359 46.7228 34.6088 46.6012 34.6335 46.1613 34.7558 45.7221 34.8534 45.5022 34.9263 45.307 34.9757 45.1359 35.0493 44.9889 35.1221 44.6707 35.3908 44.3298 35.6836 44.0604 35.9523l-.1952.1952zm.1464 1.5147h-.2928L43.5724 37.6375 43.4254 37.5887 43.279 37.5158 43.0103 37.3688 42.7663 37.1729 42.547 36.9296 42.3512 36.685 42.2048 36.4162 42.0825 36.1475 41.9361 35.8307 41.8873 35.6101 42.0825 35.6836 42.3017 35.7812 42.5223 35.9283 42.7663 36.1475 43.2061 36.5626 43.5236 36.8808l.1952.1952L43.8652 37.1729 43.9875 37.076 44.2075 36.8808 44.525 36.5626 44.9401 36.1475 45.184 35.9283 45.4287 35.7812 45.6239 35.6836 45.8191 35.6101 45.7703 35.8307 45.6479 36.1475 45.5263 36.4162 45.3552 36.685 45.16 36.9296 44.9401 37.1729 44.6954 37.3688 44.4274 37.5158 44.305 37.5887 44.1587 37.6375 44.0116 37.6622zm-.1464-10.3067L43.9875 27.3795 44.1346 27.4036 44.2556 27.4771 44.3545 27.5507 44.4274 27.6723 44.5002 27.7706 44.525 27.917 44.5497 28.0386 44.525 28.1857 44.5002 28.3073 44.4274 28.4297 44.3545 28.5273 44.2556 28.6249 44.1346 28.6736 43.9875 28.7231 43.8652 28.7472 43.7188 28.7231 43.5965 28.6736 43.4742 28.6249 43.3772 28.5273 43.279 28.4297 43.2302 28.3073 43.1814 28.1857V27.917L43.2302 27.7706 43.279 27.6723 43.3772 27.5507 43.4742 27.4771 43.5965 27.4036 43.7188 27.3795 43.8652 27.3555zM43.4254 29.3093v2.1491L43.3772 31.4337 43.3284 31.3849 43.303 31.2385 43.279 31.0433 43.1814 30.7258 43.035 30.3835 42.8639 29.9925 42.644 29.6509 42.4728 29.3822 42.4 29.2846 41.7409 29.7732 41.9107 29.9684 42.0577 30.2371 42.2048 30.5306 42.3271 30.7986 42.3759 30.921 42.424 31.0185 42.2536 30.9698 42.0825 30.9457 41.9107 30.921H41.7409L41.6914 30.7746 41.6179 30.5787 41.5203 30.3107 41.3499 29.9925 41.2275 29.7732 41.0811 29.5533 40.91 29.3334 40.7389 29.1382l-.1952-.1952L40.3238 28.7719 40.0551 28.6001 39.7376 28.4537 39.4441 28.3321 39.152 28.2585 38.8345 28.2097 38.5163 28.1857V28.161L38.5404 27.7458 38.5898 27.3795 38.6874 27.0373 38.8345 26.6463 38.9074 26.4263 39.005 26.183 39.0537 25.9384 39.0778 25.7191 39.1273 25.2786 39.1761 25.0106h.0488L39.4207 25.1082 39.7128 25.2058 40.2021 25.3034 40.7636 25.4257 41.2516 25.548 41.4227 25.6209 41.5945 25.6937 41.765 25.792 41.9361 25.8896 42.2536 26.1102 42.5711 26.3535 42.8879 26.5981 43.2061 26.8174 43.3525 26.9156 43.5236 27.0132 43.6941 27.0861 43.8652 27.1356 44.0363 27.0861 44.2075 27.0132 44.3545 26.9156 44.525 26.8174 44.8425 26.5981 45.1359 26.3535 45.4528 26.1102 45.7703 25.8896 45.9414 25.792 46.1125 25.6937 46.283 25.6209 46.4782 25.548 46.9675 25.4257 47.5049 25.3034 47.9929 25.2058 48.2863 25.1082 48.5062 25.0106H48.5303L48.5791 25.2786 48.6519 25.7191 48.6773 25.9384 48.7255 26.183 48.799 26.4263 48.8966 26.6463 49.043 27.0373 49.1412 27.3795 49.19 27.7458V28.1857L48.8966 28.2097 48.5791 28.2585 48.2616 28.3321 47.9929 28.4537 47.6753 28.6001 47.4066 28.7719 47.1626 28.943 46.9675 29.1382 46.7963 29.3334 46.6493 29.5533 46.5036 29.7732 46.3565 29.9925 46.2101 30.3107 46.0878 30.5787 46.039 30.7746l-.0488.1464H45.8191L45.6479 30.9457 45.4768 30.9698 45.307 31.0185 45.3311 30.921 45.3799 30.7986 45.5022 30.5306 45.6479 30.2371 45.8191 29.9684l.1464-.1952L45.307 29.2846 45.2328 29.3822 45.0617 29.6509l-.1952.3416L44.6707 30.3835 44.5497 30.7258 44.4514 31.0433 44.4274 31.2385 44.4026 31.3849 44.3298 31.4337 44.2803 31.4584V29.3093H43.4254zM40.91 35.4396 41.0076 35.7324 41.1299 36.0259 41.2516 36.3186 41.3987 36.6114 41.5698 36.9049 41.9608 37.4423 42.1807 37.6622 42.3512 37.8333 42.547 37.9791 42.7175 38.1021 42.9374 38.199 43.1326 38.2972 43.3772 38.3701 43.5965 38.4196 43.8652 38.4436 44.1099 38.4196 44.3545 38.3701 44.5738 38.2972 44.7937 38.199 44.9889 38.1021 45.184 37.9791 45.3552 37.8333 45.7462 37.4423 45.9655 37.1729 46.1366 36.9049 46.3084 36.6114 46.4541 36.3186 46.6012 36.0259 46.7228 35.7324 46.8204 35.4396 47.0898 35.342 47.3578 35.2191 47.5777 35.0733 47.7977 34.8775 47.9688 34.6582 48.1152 34.4136l.1464-.2928L48.3598 33.8026V33.7545L48.3839 33.7057v.0488L48.4567 33.7786 48.6773 33.8267 48.9942 33.8768 49.3364 33.9249H49.6787L49.9714 33.8768 50.2402 33.8267 50.4353 33.8026 50.5817 33.7545 50.7288 33.7057 50.8752 33.6074 51.0216 33.5098 51.315 33.2659 51.6566 33.0212 52.0717 32.802 52.5363 32.582 52.9995 32.3862 53.44 32.2151l.1952-.0488L53.7568 32.0934 53.8551 32.0199 53.928 31.947 53.9768 31.8735 54.0015 31.8V31.6783L53.9768 31.6048 53.928 31.5319 53.8551 31.4584 53.7568 31.3361 53.4641 31.0921 53.0737 30.7746 52.8538 30.6034 52.6579 30.3835 52.4875 30.1636 52.3404 29.9444 52.194 29.6997 52.0476 29.4805 51.8765 29.2599 51.6813 29.04 51.4119 28.82 51.1198 28.6001 50.8017 28.4297 50.5817 28.3321 50.3378 28.2585 50.0443 28.2097V27.7458L50.0202 27.4283 49.9955 27.2084 49.7763 26.6222 49.5563 26.036 49.4835 25.7432 49.4093 25.4009 49.3612 25.0106 49.3364 24.6195v-.2927L49.3117 24.2532 49.2876 24.2044 49.2629 24.1556 49.2141 24.1316 49.0924 24.0821 48.9213 24.0333H48.6519L48.555 24.0821 48.3351 24.1804 48.0911 24.2773 47.8217 24.3756 47.5537 24.4484 47.2355 24.4972 46.8692 24.5955 46.5036 24.6924 46.2342 24.7907l-.3416.1463L45.5751 25.0834 45.2816 25.2546 45.0136 25.4257 44.4514 25.8167 43.8893 26.2559H43.8411L43.2549 25.8167 42.7175 25.4257 42.1313 25.0834 41.8378 24.937l-.3416-.1463L41.2275 24.6924 40.8612 24.5955 40.4702 24.4972l-.2928-.0488L39.9087 24.3756 39.64 24.2773 39.3713 24.1804 39.152 24.0821 39.0778 24.0333H38.8098L38.6386 24.0821 38.4916 24.1316 38.4435 24.1556 38.4187 24.2044 38.3947 24.2532V24.3268L38.3699 24.4725 38.3947 24.6195 38.3699 25.0106l-.0488.3903L38.2476 25.7432 37.9548 26.6222 37.7349 27.2084 37.6854 27.4283 37.662 27.7458v.2928L37.6854 28.2097 37.3927 28.2585 37.1487 28.3321 36.904 28.4297 36.6113 28.6001 36.2937 28.82 36.025 29.04 35.8298 29.2599 35.6835 29.4805 35.5123 29.6997 35.3653 29.9444 35.2196 30.1636 34.8773 30.6034 34.6574 30.7746 34.2663 31.0921 33.9729 31.3361 33.8512 31.4584 33.7777 31.5319 33.7289 31.6048 33.7049 31.6783V31.8L33.7289 31.8735 33.7777 31.947 33.8512 32.0199 33.9488 32.0934 34.0959 32.1663 34.2663 32.2151 34.7062 32.3862 35.1955 32.582 35.6587 32.802 36.0498 33.0212 36.392 33.2659 36.7088 33.5098 36.8559 33.6074 37.0023 33.7057l.1464.0488L37.2951 33.8026 37.4662 33.8267 37.7349 33.8768 38.0524 33.9249H38.3699L38.7362 33.8768 39.0537 33.8267 39.2489 33.7786 39.3472 33.7545 39.3713 33.8026 39.4689 34.1208 39.5912 34.4136 39.7376 34.6582 39.9328 34.8775 40.1279 35.0733 40.3726 35.2191 40.6172 35.342 40.8853 35.4396H40.91z" fill="#144e8c"/><path fill-rule="evenodd" clip-rule="evenodd" d="M43.9876.977265 42.888 1.00133l-2.1978.09826L39.5913 1.19718l-2.1491.29278-1.0501.17046-1.0508.19518L34.2912 2.07552l-1.0501.26938-1.0254.26805-1.002.31818-1.0014.31684-1.002.34224-1.9532.78208L26.3046 4.78673 25.3521 5.22656l-.9285.46457L23.4958 6.1791 21.6883 7.20516 20.8093 7.76665 19.9544 8.32881 19.0995 8.91437 18.2692 9.52533 17.4384 10.1604 16.6322 10.8201 15.8508 11.4792l-.7814.6838L14.3121 12.8716 13.5794 13.5794 12.8709 14.3368l-.7079.7333-.6838.7814L10.8194 16.6336 10.1597 17.4397 9.52466 18.2699 8.91437 19.0995 8.32815 19.9551 7.76598 20.8093 7.20516 21.6883 6.17843 23.4958l-.48797.9285L5.22656 25.3521 4.78673 26.3053 4.37162 27.2571 3.95652 28.2337l-.36697.9773-.68315 2.0027-.29345 1.0013-.26872 1.0261-.26871 1.0508-.21925 1.0501-.19585 1.0494-.17113 1.0508-.17045 1.0749-.12233 1.0742L1.09892 40.6909 1.00066 42.8887.976597 43.9883V44.0124L1.00066 45.1113 1.09892 47.3091 1.19651 48.4087l.12233 1.0742.17045 1.0749.17113 1.0501.19585 1.0501.21925 1.0508.26871 1.0501.26872 1.0254.63502 2.0034.34158 1.0013L3.95652 59.7656l.4151.9773L4.78673 61.6954 5.22656 62.6479 5.69046 63.5757l.48797.9285L7.20516 66.311l.56082.8797L8.32815 68.0456 8.91437 68.9005 9.52466 69.7308 10.1597 70.5616 10.8194 71.3678 11.4792 72.1492 12.163 72.9299 12.8709 73.6873 13.5794 74.4206 14.3121 75.1291 15.0694 75.8363l.7814.6845L16.6322 77.1806 17.4384 77.8397 18.2692 78.4747 19.0995 79.085 19.9544 79.6712 20.8093 80.2333 21.6883 80.7948l1.8075 1.0261L24.4236 82.3095 25.3521 82.7734 26.3046 83.2126 27.2571 83.6277 28.2337 84.0428 29.2103 84.4098 31.2137 85.0936l1.002.2928L33.2411 85.6558 34.2912 85.9245 35.3413 86.1437 36.3921 86.3396 37.4422 86.5107 38.5164 86.6812 39.5913 86.8028 40.6902 86.9011 42.888 86.9987 43.9876 87.0227 45.1113 86.9987 47.3098 86.9011 48.384 86.8028 49.4836 86.6812 50.5578 86.5107 51.6079 86.3396 52.658 86.1437 53.7081 85.9245l2.0522-.5381L56.7857 85.0695 57.787 84.752 58.7883 84.4098 59.7656 84.0428 60.7422 83.6277 61.6947 83.2126 62.6479 82.7734 63.5757 82.3095 64.5035 81.8209 65.4079 81.3082 66.2869 80.7948l1.7594-1.1236L68.9005 79.085 69.7308 78.4747 70.5369 77.8397l1.6116-1.3189L72.9059 75.8363 74.4206 74.4206 75.1284 73.6873 75.837 72.9299 76.5208 72.1492 77.1806 71.3678 77.8397 70.5616 78.4747 69.7308 79.0609 68.9005 79.6719 68.0456 80.2333 67.1907 80.7708 66.311 81.3075 65.4079 81.8209 64.5042l.488-.9285L82.7734 62.6479 83.2133 61.6954 83.6284 60.7429 84.4098 58.789 84.752 57.7877 85.0689 56.7863 85.387 55.7843 85.6551 54.7589l.4893-2.1009L86.3389 51.6079 86.5107 50.5578 86.6564 49.4829 86.7794 48.4087 86.8764 47.3091 86.9499 46.2102l.0488-1.0989L87.0227 44.0124H86.9987V43.9883H87.0227L86.9987 42.8887l-.0488-1.0989L86.8764 40.6909 86.7794 39.5913 86.6564 38.5171 86.5107 37.4422 86.3389 36.3914 86.1444 35.342l-.4893-2.1009L85.387 32.215 85.0689 31.2137 84.752 30.2123 84.4098 29.211 83.6284 27.2571 83.2133 26.3053 82.7734 25.3521 82.3089 24.4243l-.488-.9285L81.3075 22.5921 80.7708 21.6883 80.2333 20.8093 79.6719 19.9551 79.0609 19.0995 78.4747 18.2699 77.8397 17.4397 77.1806 16.6336 76.5208 15.8515 75.837 15.0701 75.1284 14.3368 74.4206 13.5794 72.9059 12.163 72.1485 11.4792 71.343 10.8201 70.561 10.1604 69.7308 9.52533 68.9005 8.91437 68.0463 8.32881 66.2869 7.20516 65.4079 6.69246 64.5035 6.1791 63.5757 5.69113 62.6479 5.22656 61.6947 4.78673 60.7422 4.37229l-1.9539-.78208-1.0013-.34224-1.0013-.31684-1.0254-.31818-1.0261-.26805-1.0261-.26938L52.658 1.8556l-1.0501-.19518-1.0501-.17046-1.0742-.17112-1.0996-.12166L47.3098 1.09959l-2.1985-.09826L43.9876.977265zM44.7209 16.2185H43.2791L42.5712 16.2419 41.8626 16.2907 41.1548 16.3635 40.4455 16.4377 39.7624 16.5353 38.3948 16.78 37.7103 16.9257 37.0512 17.0975 36.3921 17.2679 35.7317 17.4631 35.0726 17.683 34.4376 17.9036 33.8032 18.1469 33.1923 18.3916 32.5572 18.6596l-1.2212.5869L30.7498 19.564 30.1635 19.9063 29.5773 20.2472 29.0152 20.5894 28.4537 20.9564 26.842 22.1282 26.3293 22.568 25.816 22.9831 25.3033 23.423 24.8147 23.8862 24.3507 24.3514 23.4223 25.328 22.9831 25.8166 22.5673 26.3293 22.1282 26.842 21.3468 27.9169 20.9557 28.4537 20.5894 29.0158 20.2224 29.602 19.8802 30.1635 19.5634 30.7498 19.2458 31.3607 18.9531 31.947 18.6596 32.5572 18.3909 33.1923 18.1469 33.8026 17.9023 34.4382 17.6583 35.0973 17.4631 35.7323 17.2673 36.3914 17.0961 37.0512 16.9257 37.735 16.7793 38.3948 16.6322 39.0786 16.5346 39.7624 16.437 40.4709 16.3642 41.1548 16.2907 41.8626 16.2412 42.5712 16.2171 43.2791v1.4411L16.2412 45.4288 16.2907 46.1367 16.3642 46.8452 16.437 47.5545l.1952 1.3669L16.9257 50.2891 17.0961 50.9488 17.2673 51.6079 17.6583 52.9274 17.9023 53.5624 18.1469 54.1968 18.3909 54.8077 18.6596 55.4428 18.9531 56.0531 19.2458 56.664 19.5634 57.2496 19.8802 57.8358 20.2224 58.422 20.9557 59.5463l1.1725 1.6117L22.5673 61.6707 22.9831 62.1833 23.4223 62.6967 23.8869 63.1606 24.3507 63.6493 24.9617 64.2602 25.5961 64.8217 26.2558 65.3832 26.9149 65.9206 27.6228 66.4581 28.3073 66.9467 29.7725 67.8745 30.5299 68.3143 31.2872 68.7294 32.0686 69.0957 32.8747 69.462 33.6809 69.8043 34.4864 70.1211 35.3172 70.4146 36.1722 70.6592 36.733 69.8043 35.9028 69.5596 35.0973 69.2909 34.2665 68.9741 33.485 68.6559 32.6789 68.3143 31.9222 67.9233 31.1649 67.5329 30.4075 67.1171 29.6756 66.678 28.9664 66.1893 28.2832 65.7007 27.5987 65.188 26.9396 64.6753 26.2799 64.1132 25.6449 63.551l-1.0502-1.0495L24.1556 62.0129 23.7398 61.549 23.3247 61.0604 22.9096 60.5477 22.1282 59.5216 21.7619 58.9842 21.4196 58.4467 21.0774 57.8853 20.7358 57.3478 20.4183 56.7863 19.8321 55.6139 19.2946 54.4414 19.0507 53.8305 18.8307 53.2202 18.6108 52.5852 18.3909 51.9749 18.2198 51.3399l-.1952-.6357L17.8775 50.0444 17.7318 49.4101 17.6095 48.751 17.5119 48.0912 17.4143 47.4074 17.3408 46.7483 17.2673 46.0638 17.2185 45.3807 17.1944 44.6962V43.3038L17.2185 42.62 17.2673 41.9362 17.3408 41.2524 17.4143 40.5933 17.5119 39.9088 17.6095 39.2497 17.7318 38.5899 17.8775 37.9549 18.0493 37.2958l.3416-1.27L18.6108 35.4148 18.8307 34.7798 19.0507 34.1695 19.2946 33.5586 19.8321 32.3861 20.4183 31.2137 20.7358 30.6515 21.0774 30.1154 21.4196 29.5533 21.7619 29.0158 22.1282 28.4784 22.9096 27.4523 23.3247 26.9644 23.7398 26.451 24.1556 25.9871 24.5947 25.4985 25.0339 25.0586 25.4985 24.5954 25.9864 24.1556 26.4517 23.7405 26.9396 23.3254 27.4523 22.9096 27.965 22.5185 28.4784 22.1529l1.0742-.7333L30.09 21.078 31.2137 20.443 31.7999 20.1248 32.3855 19.8327 33.5579 19.2953 34.1689 19.0507l1.2219-.4392L36.0251 18.3916 36.6608 18.2211 37.2952 18.0493 37.9549 17.8782 38.5899 17.7318 39.249 17.6102 39.9088 17.5119 40.5926 17.4143 41.2517 17.3408 41.9362 17.2679 42.6193 17.2191 43.3031 17.1951h1.3924L45.38 17.2191 46.0632 17.2679 46.7476 17.3408 47.4067 17.4143 48.0665 17.5119 48.7503 17.6102 49.4094 17.7318 50.0444 17.8782 50.7042 18.0493 51.3392 18.2211 51.9742 18.3916 52.5845 18.6115 53.2202 18.8314 53.8305 19.0507 54.416 19.2953 55.0277 19.564 55.6132 19.8327 56.1994 20.1248 56.7616 20.443 57.3472 20.7605 57.8846 21.078 58.4467 21.4196 58.9835 21.7866 59.5209 22.1529 60.0343 22.5185 60.547 22.9096 61.5236 23.7405 62.0129 24.1556 62.4768 24.5954 62.9407 25.0586 63.4046 25.4985 63.8444 25.9871 64.2595 26.451 64.6746 26.9644 65.0897 27.4523 65.4808 27.9657 65.8471 28.4784l.7333 1.0749L66.922 30.1154 67.2401 30.6515 67.557 31.2384 67.8745 31.7999 68.1673 32.3861l.5381 1.1725L68.9493 34.1695 69.1693 34.7798 69.3885 35.4148 69.5844 36.0258 69.7795 36.6608 69.9507 37.2958 70.1218 37.9549 70.2682 38.5899 70.3898 39.2497 70.4881 39.9088 70.5857 40.5933 70.6592 41.2524 70.7321 41.9362 70.8056 43.9883V44.0124L70.7321 46.0638 70.6592 46.7483 70.5857 47.4074 70.4881 48.0912 70.3898 48.751 70.2682 49.4101 70.1218 50.0444 69.9507 50.7042 69.7795 51.3399 69.5844 51.9749 69.3885 52.5852 69.1693 53.2202 68.9493 53.8305 68.7054 54.4414l-.5381 1.1725L67.8745 56.2001 67.557 56.7863 67.2401 57.3478 66.922 57.8853 66.5804 58.4467l-.7333 1.0749L65.4808 60.0343 65.0897 60.5477 64.6746 61.0604 64.2595 61.549 63.8444 62.0129 63.4046 62.5015 62.9407 62.9407 62.3297 63.551 61.7195 64.1132 61.0604 64.6753 60.4006 65.188 59.7168 65.7007 59.033 66.1893 58.3004 66.678 57.5671 67.1171 56.8351 67.5329 56.0778 67.9233 55.2957 68.3143 54.5143 68.6559 53.7081 68.9741 52.9027 69.2909 52.0965 69.5596 51.2409 69.8043 51.8278 70.6592 52.6828 70.4146 53.513 70.1211 54.3191 69.8043 55.1246 69.462 55.9307 69.0957 56.7128 68.7294 57.4695 68.3143 58.2268 67.8745 58.9594 67.4353 60.3759 66.4581l1.3676-1.0749L62.4033 64.8217 63.039 64.2602 63.6493 63.6493 64.1132 63.1606 64.577 62.6967 65.0169 62.1833 65.8471 61.158 66.2622 60.6205l.7821-1.0742L67.4106 58.9842 67.7528 58.422 68.4367 57.2496 68.7542 56.664 69.3404 55.4428 69.6084 54.8077 69.8537 54.1968 70.0971 53.5624 70.317 52.9027 70.5369 52.2677 70.7321 51.6079 71.0743 50.2891 71.2214 49.6052l.244-1.3676L71.5623 47.529 71.6365 46.8452 71.7094 46.1367 71.7581 45.4288 71.7822 44.7202V43.2791L71.7581 42.5712 71.7094 41.8626 71.6365 41.1548 71.5623 40.4709 71.4654 39.7624l-.244-1.3676L71.0743 37.735 70.9032 37.0512 70.7321 36.3914 70.5369 35.7323 70.317 35.0973 70.0971 34.4382 69.8537 33.8026 69.6084 33.1923 69.3404 32.5572 69.0476 31.947 68.7542 31.3607 68.4367 30.7498 68.0944 30.1635 67.7528 29.602 67.4106 29.0158 67.0443 28.4537l-.7821-1.0742L65.8471 26.842 65.0169 25.8166 64.577 25.328 63.6493 24.3514 63.1613 23.8862 62.672 23.423 62.184 22.9831 61.6707 22.568 61.1573 22.1282l-1.6116-1.1718L58.9835 20.5894 58.3979 20.2472 57.8365 19.9063 57.2502 19.564 56.6399 19.2465 56.0537 18.9531 55.4428 18.6596 54.8071 18.3916 54.1968 18.1469 53.5618 17.9036 52.9027 17.683 52.2677 17.4631 51.6079 17.2679 50.9481 17.0975 50.265 16.9257 49.6046 16.78 48.2369 16.5353 47.529 16.4377 46.8446 16.3635 46.1367 16.2907 45.4288 16.2419 44.7209 16.2185zM43.9876.0l2.2707.048128 1.1244.074197 1.1236.097593 2.1979.293447 1.0741.170453 2.1498.439832 1.0742.26872 1.0514.26805 1.0254.31817 2.0515.68315 1.0013.39104 1.0013.41511L62.1098 3.88366l1.9057.9278L64.9681 5.32483 65.8959 5.83685 66.7996 6.37428 67.7034 6.93644 69.4627 8.1089 70.317 8.74392 71.1472 9.37827 71.9774 10.0387 72.7835 10.7218 73.5904 11.4311l1.5133 1.4652L76.5696 14.4103 77.9372 16.0226 78.597 16.8281 79.2561 17.683l1.2212 1.7106L81.0636 20.296 81.6257 21.1763 82.1631 22.1034 82.6752 23.0319 83.1885 23.9604 83.6524 24.937 84.117 25.8895 84.5321 26.8661 84.9472 27.8681 85.3135 28.8688 85.6792 29.8955 86.0207 30.9209 86.3149 31.947 86.607 32.9964 86.8764 34.0719 87.0963 35.1221 87.3162 36.221 87.4873 37.2958l.1464 1.099L87.756 39.4944 87.8536 40.6173 87.9271 41.741l.0488 1.123L88 43.9883V44.0124L87.9759 45.1354l-.0488 1.1236L87.8536 47.3827 87.756 48.5056 87.6337 49.6052l-.1464 1.099L87.3162 51.779 87.0963 52.8779 86.8764 53.9287 86.607 55.0029 86.3149 56.0531 86.0207 57.0798 85.6792 58.1052 85.3135 59.1306 84.9472 60.1326 84.5321 61.1332 84.117 62.1105 83.6524 63.0878 83.1885 64.0403 82.6752 64.9681 82.1631 65.8959 81.6257 66.8244 81.0636 67.7034 80.4773 68.6078 79.2561 70.317 78.597 71.1726 77.9372 71.9781 76.5696 73.5897 75.1037 75.1037 73.5904 76.5696 72.7835 77.2775 71.9774 77.962 71.1472 78.6211 70.317 79.2561 69.4627 79.8918 68.6071 80.4773 67.7034 81.0629 66.7996 81.625 65.8959 82.1625 64.9681 82.6758 64.0155 83.1885l-1.9057.9285L61.1332 84.5321 60.1319 84.9472 59.1306 85.3383 57.0791 86.0214 56.0537 86.3396 55.0023 86.6076 53.9281 86.8764 51.7783 87.3162 50.7042 87.4873l-2.1979.2928L47.3827 87.8783 46.2583 87.9512 43.9876 88l-2.2466-.0488L40.6173 87.8783 39.4937 87.7801l-2.1985-.2928L36.221 87.3162 35.1214 87.0963 34.0713 86.8764 32.9971 86.6076 31.9463 86.3396 30.9202 86.0214 28.8694 85.3383 27.8681 84.9472 26.8661 84.5321 25.8895 84.117 24.9122 83.6524 23.9597 83.1885 23.0312 82.6758 22.1041 82.1625 21.1756 81.625 20.2712 81.0629 19.3922 80.4773 18.538 79.8918 16.8274 78.6211 16.0219 77.962 15.2165 77.2775 14.4103 76.5696 12.8956 75.1037 11.4304 73.5897 10.7218 72.7842 10.038 71.9781 9.37894 71.1726 8.10823 69.462 7.522 68.6078 6.93644 67.7034 6.37428 66.8244l-.53676-.9285L5.29942 64.9681 4.81079 64.0403 4.34689 63.0878l-.46323-.9773-.41577-.9773L3.05278 60.1326l-.39104-1.002-.68381-2.0508-.31751-1.0267-.26872-1.0502-.26805-1.0742-.219914-1.0508L.683818 51.779.512697 50.7042.21925 48.5056.121657 47.3827.048128 46.259.0 44.0124V43.9883L.048128 41.741.121657 40.6173.21925 39.4944.512697 37.2958.683818 36.221.903736 35.1221l.219914-1.0502.26805-1.0755.26872-1.0494.31751-1.0261.68381-2.0521.39104-1.0007.41511-1.002L3.88366 25.8895 4.34689 24.937 4.81079 23.9604l.48863-.9285 1.07486-1.8556L6.93644 20.296l.58556-.9024L8.10823 18.538l1.27071-1.7099L10.038 16.0226 10.7218 15.2165 11.4304 14.4103l1.4652-1.514.7567-.7333L14.4103 11.4311 15.2165 10.7218 16.0219 10.0387 16.8274 9.37827 18.538 8.1089 19.3922 7.52267 20.2712 6.93644 21.1756 6.37428l.9285-.53743 1.8556-1.02539L24.9122 4.34756 25.8895 3.88366 26.8661 3.46789l1.002-.41511 1.0013-.39104 2.0508-.68315 1.0261-.31817 1.0508-.26805 1.0742-.26872L35.1214.903736 36.1962.683818l1.099-.170453L39.4937.219918 40.6173.122325 41.741.048128 42.864.0247324 43.9876.0z" fill="#144e8c"/><path fill-rule="evenodd" clip-rule="evenodd" d="M7.8155 30.9456 7.76604 30.8969 7.66912 30.7986 7.59559 30.7745 7.54679 30.7498 7.49799 30.7745 7.4492 30.8721l-.0488.1952L7.32687 31.2384 7.30281 31.312 7.25401 31.336 7.22995 31.3848H7.18048L7.05883 31.3608 6.9365 31.336 6.88704 31.2872 6.83891 31.2632 6.81418 31.2137v-.0488L6.83891 31.0185 6.86297 30.8474 6.88704 30.7745 6.86297 30.7017V30.6515L6.81418 30.6281 6.64372 30.5787 6.37434 30.5058 6.13036 30.4323 6.03276 30.3835 5.95924 30.3594 5.78811 30.3106 5.69052 30.2612 5.61766 30.2124 5.54413 30.1636 5.49533 30.0907 5.4706 29.8955 5.49533 29.6509V29.5292L5.59226 29.2846 5.64172 29.187 5.69052 29.1134l.0488-.0488L5.78811 29.0399h.21992L6.08156 29.0159H6.17848L6.22795 29.0399 6.30081 29.0646 6.35027 29.1134 6.61899 29.3822 6.86297 29.6021 6.96056 29.6509 7.05883 29.6997H7.10695V29.6261L7.05883 29.4062 6.98463 29.0894 6.88704 28.7471 6.74065 28.3808 6.52073 27.9169 6.27675 27.5259 6.17848 27.3554 6.08156 27.2084 6.0575 27.0861V26.9885L6.10562 26.8661 6.17848 26.7445 6.25268 26.671 6.35027 26.5981 6.52073 26.5005 6.69185 26.451H6.76471L6.83891 26.5005 7.03409 26.5981 7.18048 26.7197 7.22995 26.7692v.3416L7.25401 27.4283 7.32687 27.7217 7.4492 28.1856 7.49799 28.5272 7.52206 28.8447 7.57085 29.2358V29.8955L7.62032 29.9924 7.64438 30.0412 7.74198 30.0907H7.8155L7.96189 30.1636 8.13302 30.3106 8.35227 30.5058 8.54812 30.7017 8.71924 30.8721 8.86563 30.9697 8.91443 30.9938 8.93849 30.9697 8.96322 30.9209V30.8474L8.93849 30.7017V30.6034L8.91443 30.5546 8.86563 30.4563l-.14639-.1951L8.54812 29.9924l-.0488-.1463L8.47459 29.7244V29.6509L8.49932 29.6261H8.74331L8.89036 29.6021 8.93849 29.5773 8.96322 29.5533 8.93849 29.5045 8.89036 29.431 8.69451 29.211 8.49932 28.9671 8.3282 28.7471 8.20654 28.5767 8.08422 28.4296 7.98663 28.2585 7.93716 28.0633 7.98663 27.9905 8.05949 27.9169 8.13302 27.8929 8.20654 27.8681h.14573L8.47459 27.941 8.62165 28.1856 8.69451 28.3073 8.74331 28.3808 8.76737 28.4296 8.8175 28.4784 8.89036 28.5032 8.96322 28.552 9.03675 28.6001h.02407L9.08555 28.5767V28.5272L9.06082 28.4296 9.01269 28.1856 8.91443 27.9169 8.8175 27.6723 8.76737 27.5259V27.4036L8.8175 27.2324 8.89036 27.062 8.98796 26.9156 9.03675 26.8909h.02407L9.11028 26.9156 9.13368 26.9644 9.18381 27.0861l.0488.1463L9.25667 27.3554 9.30547 27.5747 9.35359 27.8434 9.40373 28.1368 9.42712 28.3568 9.40373 28.5767V28.7471L9.42712 28.8688 9.59891 29.187 9.89169 29.7244l.29341.5368L10.3803 30.5546 10.4291 30.6281h.0488L10.526 30.6034 10.5508 30.5787 10.5755 30.5546 10.5508 30.5058 10.502 29.9924 10.4779 29.187V28.3568L10.502 28.0633 10.526 27.8681 10.6002 27.6723 10.6731 27.5018 10.6972 27.4283 10.746 27.4036 10.7714 27.3795H10.8195L10.9411 27.4771 11.0641 27.6235 11.1617 27.7946 11.1865 27.9657V28.1121L11.137 28.2832 11.0641 28.4537 10.9913 28.6001 10.9666 28.7231 10.9411 28.943 10.9171 29.187V29.9924L10.9411 30.3354 10.9666 30.6281v.1464L11.2841 30.9209 11.7968 31.2137 12.0655 31.336 12.3095 31.4336 12.4318 31.4583 12.5294 31.4831H12.6029L12.6517 31.4583 12.6758 31.4095V31.312L12.6517 31.092 12.6998 30.8474 12.7246 30.7257 12.774 30.6515 12.8228 30.5787 12.8957 30.5305H12.9933L13.0668 30.5546 13.1644 30.5787 13.2132 30.6034 13.286 30.6769 13.3108 30.7257 13.3348 30.7986V30.8721L13.262 31.092 13.2132 31.3608 13.1891 31.4831V31.6047L13.2132 31.703 13.262 31.7511 13.6524 31.8734 14.3368 32.0693 15.0447 32.2398 15.4846 32.3621l.1464.0488.1951.0488L16.022 32.5573 16.2172 32.6796 16.3883 32.8019 16.4859 32.9236 16.51 32.9964V33.0706L16.4124 33.2164 16.1196 33.4617 15.8509 33.6315 15.6557 33.7297 15.5093 33.7545 15.387 33.7297H15.2894L15.2646 33.7057V33.6074L15.2894 33.5586 15.3134 33.4857 15.3382 33.4363V33.3634L15.2894 33.2906 15.2165 33.2164 15.0695 33.1188 14.8495 32.9964 14.5568 32.8754 14.0193 32.6061l-.391-.1464L13.506 32.4109 13.4331 32.3861h-.0488L13.3596 32.4109V32.582L13.4084 32.8253l.0488.2453L13.5307 33.1923 13.6524 33.3146l.1717.1952L13.8723 33.6569V33.852L13.8482 33.9008 13.7994 33.9737l-.0488.0488L13.6042 34.1208 13.4572 34.1936 13.3108 34.2177h-.1464L12.9692 34.1696 12.8957 34.1208 12.8709 34.0472 12.8957 33.9008V33.7785L12.8709 33.6074 12.774 33.2658 12.6998 32.8995 12.6758 32.582 12.6998 32.2645 12.7246 32.191 11.2346 31.6288H11.2105L11.137 31.6535 11.1123 31.6783 11.0882 31.7271V31.947L11.1617 32.3373 11.2593 32.8995 11.3322 33.2411 11.4305 33.5833 11.5521 33.9737 11.6744 34.34 11.9431 34.9757l.1952.3904L12.1878 35.4884 12.2366 35.6355V35.7571L12.2119 35.9282 12.1631 36.0987 12.0895 36.2457 12.0167 36.3674 11.9679 36.4657 11.8944 36.5385l-.0488.0488h-.0488L11.7727 36.5626 11.5521 36.4657 11.3075 36.3674 11.2105 36.1475 11.137 35.9035 11.0641 35.6595 11.0153 35.4149 10.9171 34.8774 10.8195 33.7545 10.7714 33.2164 10.746 32.7037 10.6972 32.215 10.6484 31.8982 10.6243 31.6288 10.6002 31.4583 10.5755 31.4095 10.4291 31.312 10.1109 31.1408 9.74463 30.9209 9.52472 30.7986H9.50065L9.47659 30.8474V31.0432L9.50065 31.3848 9.54945 31.7759V32.3133L9.64704 32.582 9.69584 32.8507V32.9724L9.67177 33.0706 9.62298 33.1682 9.54945 33.2411 9.379 33.2906H9.15841L9.06082 33.2164 9.01269 33.1435 8.96322 33.0459 8.93849 32.9236 8.91443 32.7772 8.89036 32.215V31.8487L8.79277 31.7759 8.69451 31.7271 8.49932 31.5319 8.2794 31.336 8.05949 31.1408l-.24399-.1952z" fill="#144e8c"/><path fill-rule="evenodd" clip-rule="evenodd" d="M21.3467 18.538 21.1509 18.6596 21.0774 18.7091H20.9069L20.8093 18.6115 20.7598 18.5634 20.7358 18.4645V18.3675L20.7846 18.2933 20.8574 18.1964 20.9557 18.0982 21.0526 18.0253 21.1268 17.9511 21.1756 17.8782 21.1997 17.806V17.7318L21.2244 17.659 21.2725 17.5614 21.322 17.4879 21.3955 17.3909 21.4684 17.3408 21.5419 17.292 21.6148 17.2679H21.7131L21.7859 17.292 21.8588 17.3167 21.933 17.3655l.0488.0488L22.0299 17.5119 22.0058 17.5614 21.9082 17.7318 21.7618 17.9511 21.6395 18.1717 21.5907 18.3675 21.566 18.417V18.4645L21.5419 18.4892H21.5179L21.4684 18.5133 21.4437 18.4892 21.3467 18.538zM21.6148 19.0026 22.0058 18.7091 22.3474 18.4892v-.5381L22.3962 17.806 22.4945 17.7318 22.6402 17.659H22.7144L22.7632 17.6831 22.7872 17.7318 22.8113 17.8301 22.7872 18.0741 22.7632 18.3428V18.5634L22.7872 18.7091 22.9584 18.9531 23.2765 19.3194 23.7157 19.8328 23.7645 19.9063 23.8374 20.1008 23.8621 20.1991 23.8374 20.296V20.3207L23.7886 20.3702 23.7398 20.3943H23.6916L23.5693 20.4183H23.3247L23.2023 20.3943 23.1047 20.3455 23.0072 20.296 22.8855 20.2231 22.7872 20.1008 22.5921 19.9297 22.4697 19.8087H22.3721L22.3233 19.8328 22.2745 19.8809 22.1522 20.052 21.957 20.2231 21.8835 20.2719 21.8347 20.296 21.8106 20.2472V20.1503L21.933 19.8809 22.0299 19.7104 22.1041 19.5881 22.1522 19.5393 21.6148 19.0026zM17.8535 18.4404 17.8775 18.3428 17.927 18.0253 17.9764 17.6831 18.0974 17.2192 18.1716 16.9992 18.2445 16.804 18.318 16.6577 18.3909 16.5594H18.4885L18.5379 16.6082 18.5861 16.6577 18.6837 16.804 18.806 16.9992 19.0259 17.4397 19.173 17.7559 19.2211 17.8548 19.2946 17.9511 19.3681 18.0253 19.5145 18.1717 19.5881 18.2445 19.6369 18.3428V18.4404L19.6121 18.6596 19.5145 18.9043 19.4169 19.173 19.3441 19.4411V19.4912L19.3681 19.5146 19.3922 19.5393 19.4169 19.5146 19.5393 19.4658 19.6609 19.3936 19.9303 19.173 20.0513 19.0754V17.927H20.2224L20.5406 17.9765 20.6135 17.9511 20.6623 17.927 20.7117 17.8548 20.7598 17.7806v-.2439L20.7117 17.4631 20.6623 17.3167 20.6375 17.0975 20.6135 16.8769 20.5894 16.7058V16.6082L20.6135 16.5106 20.687 16.3889 20.7598 16.2673 20.9069 15.9491 21.0526 15.5581 21.1028 15.3876v-.147L21.0526 15.1182 21.0045 15.0454 20.9316 14.9718 20.8574 14.923 20.7598 14.8742 20.6623 14.8502 20.5894 14.8255l-.0488-.0488L20.5165 14.7279V14.6303L20.5406 14.3368 20.6375 13.8482 20.6623 13.6042 20.7117 13.4331 20.7598 13.3355 20.8093 13.2867H20.8574L20.9069 13.3114 20.9316 13.3596 20.9798 13.4331 21.1997 13.8001 21.6636 14.5079 22.2251 15.3141l.4893.635.5367.635L23.8621 17.3167 24.1555 17.659 24.3989 17.9511 24.57 18.1964 24.6188 18.3187V18.417L24.5459 18.4645 24.4483 18.538 24.326 18.5868 24.0325 18.685 23.7645 18.7826 23.5934 18.8796 23.5199 18.9531V19.0026H23.5446L23.5693 19.0273 23.8126 19.0507H24.2525L24.8146 19.0273 25.3273 18.9785 25.4497 18.9531 25.5472 18.9284 25.6201 18.8796 25.6936 18.8314 25.816 18.7091 25.8895 18.5868 25.9623 18.3675 25.9864 18.2445 25.8654 18.1229 25.5472 17.7806 25.0098 17.1951 24.3019 16.413 23.9109 15.9979 23.4958 15.5333 23.056 14.9966 22.5921 14.4344 22.1522 13.8977 21.7371 13.3355 21.3955 12.8475 21.1028 12.383 21.0526 12.3101 21.0045 12.2854 20.9316 12.2606 20.8574 12.2854 20.7846 12.3342 20.7117 12.4077 20.6623 12.4805 20.4664 12.8716 20.3935 13.1891 20.3207 13.4819 20.2472 13.7747 20.1496 14.3368 20.0032 14.899V14.923H19.9784L19.9056 14.9471 19.8561 14.9966 19.8073 15.0701 19.7833 15.143 19.7592 15.2165v.1952L19.7833 15.5093 19.8073 15.5333V15.5581l.0488.1464L19.9303 15.8996 19.9544 16.0226 20.0032 16.1443V16.4377L19.9784 16.6824 19.9544 16.901l-.0488.1965L19.832 17.2439 19.7592 17.3909 19.685 17.5119 19.6121 17.5855 19.5633 17.659h-.0488L19.4657 17.6343 19.441 17.5614 19.3922 17.4879 19.3194 17.292 19.2458 17.1704l-.0488-.1464-.0488-.2928L19.0747 16.3147 18.953 15.778l-.0488-.2447L18.8548 15.3141V14.923L18.953 14.5567 19.0506 14.1657 19.0994 13.9458v-.1952L19.0506 13.5795 19.0018 13.409 18.8307 13.1644 18.6596 12.9692 18.5861 12.9204 18.5132 12.8963 18.4644 12.9444l-.0488.0488L18.3428 13.1891 18.2926 13.3843 18.2445 13.5307 18.1716 13.5795H18.0246l-.244-.0488L17.3167 13.4819 16.8769 13.409 16.5841 13.3843H16.5346L16.4858 13.409 16.4611 13.4578V13.4819L16.4858 13.6042 16.5841 13.7259 16.7057 13.8977l.1464.2927L17.072 14.532 17.3655 14.9966 17.4871 15.2165 17.5854 15.4117 17.6335 15.5581 17.6583 15.6804V15.8996L17.6095 16.0226 17.5119 16.3395 17.3896 16.7312 17.3167 17.0975 17.2432 17.4397 17.1456 17.8548 17.0473 18.2211 16.9744 18.4892 16.8521 18.685 16.6322 19.0507 16.6081 19.1242 16.5841 19.173 16.6081 19.2218v.0488L16.681 19.3194 16.8033 19.3682H16.9257L17.0232 19.3435 17.1456 19.3194 17.1944 19.2953l.0488-.0488h.1952L17.5366 19.1977 17.6583 19.1489 17.7318 19.0754 17.8047 18.9043 17.8294 18.7091 17.8535 18.5133V18.4404zm1.5387 1.6363L19.4169 20.028 19.4657 19.9297 19.5145 19.8809 19.5881 19.8575 19.6609 19.8328 19.7345 19.8087 19.8561 19.8328 19.9784 19.9063 20.1496 19.9792 20.3447 20.1008 20.7358 20.3943 21.1756 20.7111 21.566 21.0781 21.8835 21.4197 22.0058 21.5667 22.1041 21.7131 22.1769 21.8354V21.9083L22.0794 22.1035 21.8347 22.3969 21.7131 22.544 21.5907 22.6656 21.4684 22.7138 21.3708 22.7392 21.322 22.6897 21.2485 22.6409 21.1756 22.544 21.1268 22.4457 21.0045 22.2258 20.8822 22.0065l-.1464-.2439L20.5647 21.4932 20.3935 21.2492l-.1951-.244L19.7833 20.5406 19.3922 20.0767z" fill="#144e8c"/><path fill-rule="evenodd" clip-rule="evenodd" d="M34.12 7.88904h.0488L34.1935 7.91377 34.2664 8.01069 34.2911 8.25534 34.3152 8.64638 34.3399 9.08555 34.364 9.52539v.17112L34.3399 9.84357 34.2911 9.94049 34.12 10.1116 34.0471 10.1363 33.876 10.2092 33.5097 10.4779 33.4362 10.5755 33.3627 10.649 33.3386 10.6738 33.3145 10.6978H33.2898L33.2651 10.6738 33.241 10.7707l-.0488.2446V11.1377L33.2169 11.2593V11.2841L33.241 11.3329H33.3145L33.5097 11.2593 33.7537 11.1377 33.9983 11.0153 34.1688 10.9666 34.2423 10.9906 34.3152 11.0641 34.3399 11.1617 34.3894 11.2841 34.4135 11.504 34.3894 11.651 34.3399 11.772 34.2423 11.9919 34.1688 12.2366 34.0959 12.4077 34.0712 12.5782 34.0471 12.7734 34.0224 13.0187 33.9729 13.2379 33.9489 13.3596 33.9729 13.4331 34.0224 13.5066 34.0959 13.5548 34.1935 13.5795H34.2911L34.3894 13.5548 34.511 13.4819 34.6086 13.409 34.7303 13.2867 34.8526 13.1156 34.9749 12.9204 35.0725 12.6517 35.1955 12.3342 35.3413 11.9672 35.4636 11.528l.1952-.8302L35.7811 10.1116 35.8299 9.74531V9.62298L35.7564 9.79343 35.6347 10.1604 35.5859 10.3068 35.5124 10.4044 35.4636 10.4291H35.3907L35.3172 10.4044 35.2196 10.3556 35.1454 10.3068V10.2339L35.1701 10.1604 35.2196 10.0628 35.3413 9.91643 35.4148 9.74531V9.64771L35.3907 9.59825 35.3413 9.55012 35.2925 9.52539 35.1701 9.47726 35.1213 9.45253 35.1454 9.28141 35.1701 8.84157 35.1955 8.32887 35.2196 7.91377 35.2437 7.69385 35.3413 7.37567 35.4148 7.05883l.0488-.29345V6.66779L35.4148 6.5702 35.3653 6.49734 35.2925 6.42314 35.1454 6.27742 35.0725 6.17916V6.13036L35.0244 6.1063 34.9997 6.08156H34.9502L34.8286 6.13036 34.7062 6.20389 34.4375 6.39907 34.2183 6.59426 33.9983 6.76538 33.6073 7.03343l-.1952.14705-.1952.17113L33.0218 7.49866 32.8988 7.64505 32.8259 7.74265V7.86497L32.8506 7.9619V8.06016L32.8988 8.08489 32.9476 8.13302 33.0451 8.18182 33.1675 8.23061 33.5338 8.35294 33.632 8.32887 33.729 8.25534 33.8032 8.18182 33.876 8.08489 34.0471 7.93783 34.12 7.88904zm2.0274-.92847L36.1962 7.03343 36.2209 7.13236 36.2697 7.27875 36.3426 7.59559 36.3673 7.93783 36.392 8.23061l.0488.24465L36.489 8.57285 36.5625 8.64638 36.6848 8.69518 36.8312 8.71924 37.0023 8.69518 37.0993 8.67111 37.1735 8.59692 37.2223 8.52406V8.18182l-.0488-.24399L37.0993 7.49866 37.0264 7.05883 36.9783 6.71725 36.9288 6.61899 36.8559 6.54546 36.7824 6.5214 36.6608 6.49734 36.4161 6.54546 36.1474 6.59426 36.0498 6.64306 36.001 6.69252 35.9769 6.74065V6.76538L36.0251 6.86364 36.0986 6.91244 36.1474 6.96057zm1.5147-.87901-.5869.31751L37.0993 6.30148 37.1735 6.0575 37.2704 5.88638 37.3693 5.71526 37.5391 5.49534 37.7597 5.27542 38.2476 4.81152 38.6628 4.37235 38.8586 4.20056 39.0297 4.03011 39.1761 3.93252 39.3225 3.85899 39.4442 3.81019 39.5912 3.78546H39.8593L39.9823 3.81019 40.0792 3.85899 40.1039 3.90778 40.128 3.95725 40.1527 4.00538V4.05417L40.128 4.37235l-.0488.31684L39.9823 5.03144 39.884 5.27542 39.7864 5.81285l-.1464.95253L39.5177 7.71791 39.4442 8.23061 39.4208 8.30414 39.3472 8.40173 39.249 8.49999 39.1273 8.59692 38.8827 8.74398 38.7115 8.84157 38.6628 8.8663 38.6146 8.93916 38.5899 9.01202V9.11028L38.5658 9.37833 38.5899 9.76937 38.6146 10.1363 38.6628 10.3556 38.6875 10.4044 38.7363 10.4539 38.7851 10.4779H38.8586L39.0779 10.4539 39.3472 10.4291h.1464L39.5912 10.4539 39.64 10.4779 39.6888 10.5027 39.7129 10.5514V10.7707L39.64 10.9906 39.5424 11.2353 39.4208 11.504 39.1761 11.9672 39.0779 12.1871 38.9809 12.3583 38.9562 12.5053v.0488l.0488.0488L39.0538 12.6276H39.1521L39.3713 12.5541 39.5912 12.4565 39.8111 12.3583 40.0063 12.2607H40.1039L40.2022 12.2366H40.2503L40.3238 12.2607 40.5685 12.5053 40.6413 12.6276 40.6654 12.7493V12.8716L40.6413 12.9933 40.5925 13.1156 40.495 13.2379 40.3486 13.3115 40.1527 13.3596 39.8111 13.4331 39.64 13.4819l-.1464.0488L39.3225 13.5795H39.005L38.6146 13.5548 38.4188 13.5307 38.2476 13.4578 38.1748 13.4331 38.1253 13.3843 38.0765 13.3115 38.0525 13.262 38.0284 13.1403 38.0525 13.0668 38.1013 13.0187 38.1748 12.9692 38.2476 12.9204 38.2964 12.8964 38.3452 12.8228 38.3212 12.7493 38.2964 12.5053v-.6838L38.2724 11.7239 38.2476 11.6992 38.1013 11.6744 37.9549 11.6009 37.8813 11.528 37.8325 11.4552 37.8085 11.381 37.8325 11.3081 37.9301 11.2105 38.0284 11.0401V10.7707L38.0037 10.4779l-.0488-.244L37.9054 10.0628 37.7597 9.94049 37.5638 9.79343 37.4903 9.72057 37.4422 9.62298 37.4174 9.57418V9.52539L37.4422 9.47726 37.4662 9.40306 37.5638 9.30547 37.6621 9.15908 37.7102 8.93916 37.7597 8.69518 37.7837 8.47526l.0488-.14639L37.8573 8.28008V8.20655L37.8085 8.18182H37.4903L37.4422 8.13302 37.3927 8.08489 37.3693 8.01069V7.93783L37.3927 7.84024 37.4422 7.76671 37.5638 7.69385l.1464-.0488L37.8085 7.62032 37.8813 7.57153 37.9549 7.49866 38.0037 7.42447l.0488-.34091L38.0765 6.74065l.0488-.41444V6.27742L38.1748 6.25268 38.2964 6.15509 38.37 6.13036H38.4435L38.4916 6.15509 38.5164 6.20389 38.5404 6.39907v.21992L38.5164 6.83824V7.05883L38.5404 7.25401 38.5899 7.4004l.0488.0488L38.6875 7.47393 38.7363 7.4492l.0488-.0488L38.9074 6.9853l.1464-.73262L39.2008 5.54413 39.2978 5.08023 39.3472 4.86032V4.6404L39.3225 4.56687 39.2978 4.51874H39.249L39.1761 4.56687 38.8345 4.95858 38.0037 5.69119l-.3416.39037z" fill="#144e8c"/><path fill-rule="evenodd" clip-rule="evenodd" d="M54.416 7.20513 54.3432 7.13227V6.98521L54.416 6.91235 54.4902 6.88762H54.6614L54.7583 6.91235 54.8565 6.93642 54.9541 7.00995 55.1493 7.10754 55.3204 7.20513 55.4916 7.30339 55.6868 7.37559 56.1266 7.47385 56.7857 7.5955 57.1279 7.62024 57.396 7.64497 57.6406 7.62024 57.8117 7.5955 58.0804 7.57144h.1952L58.5203 7.69376 58.8137 7.91368 59.0577 8.10887 59.1794 8.20646 59.1546 8.27999v.17112L59.1306 8.54804 59.0818 8.6463 59.033 8.74389 58.9354 8.81675 58.6907 8.98787 58.2268 9.35418 57.6406 9.79335 57.0551 10.3067 56.7128 10.6249 56.4441 10.9177 56.273 11.1129 56.1994 11.2104 56.1507 11.308V11.3575L56.1994 11.3809H56.297L56.5417 11.3575 56.8592 11.284 57.0063 11.1857 57.1279 11.1129 57.2743 11.1857 57.4695 11.284 57.6166 11.4056 57.7141 11.5039 57.7382 11.5768V11.6743L57.6894 11.7967 57.6166 11.919 57.5671 11.9671 57.4942 12.0413 57.4214 12.0654 57.3472 12.1142 57.2255 12.1389 57.1279 12.163H56.9809L56.8592 12.1389 56.5417 12.1142h-.2928L55.9555 12.1389 55.6627 12.163 55.0517 12.2853 54.4414 12.4564 53.7817 12.6276 53.1219 12.8475 52.8285 12.9691 52.5604 13.0914 52.3405 13.189 52.1941 13.2866l-.0488.0488L52.0718 13.3595 52.023 13.3842H51.9502L51.8031 13.3595 51.6567 13.2866 51.3633 13.1155 51.0457 12.9203 50.9241 12.8475 50.8258 12.7492 50.7289 12.6276 50.6554 12.4805 50.6306 12.3341 50.6066 12.2124V11.9431L50.6306 11.8461 50.6801 11.7719 50.7289 11.7238 50.8258 11.6991H51.0705L51.2169 11.7238 51.3633 11.7479 51.632 11.7967 51.8766 11.8461h.1464L52.1941 11.7967 52.5845 11.6991 53.0979 11.552 53.5618 11.4551 53.9281 11.3575 54.148 11.308 54.5384 11.04 55.2229 10.429 55.9307 9.81808 56.3706 9.42771 56.7616 9.13426 57.3231 8.71916 57.5671 8.52397 57.7623 8.32879 57.8365 8.25526 57.8605 8.18173V8.15766L57.8365 8.10887H57.6653L57.4454 8.13293 57.176 8.18173 56.8839 8.23053 56.273 8.40165 55.8338 8.49991 55.7355 8.59683 55.6627 8.69509 55.5404 8.71916H55.3933L55.2716 8.69509 55.1246 8.6463 54.8813 8.49991 54.7583 8.40165 54.6614 8.25526 54.5631 8.03534 54.4655 7.74256 54.416 7.5955 54.392 7.44911V7.32746L54.416 7.20513z" fill="#144e8c"/><path fill-rule="evenodd" clip-rule="evenodd" d="M70.781 15.8997 70.4635 16.413 70.1219 16.9504 69.902 17.2192 69.8539 17.268 69.7556 17.292 69.634 17.3168h-.4405L68.9736 17.292 68.6808 17.2439 68.2657 17.1951 67.8011 17.1463 67.4355 17.0975 67.2149 17.048H66.9956L66.9221 17.0975 66.874 17.1704 66.8245 17.2439 66.7757 17.3408V17.4879L66.7998 17.5855 66.874 17.7078 67.0197 17.8549 67.1908 17.9765 67.3619 18.0253l.1952.0488L67.9234 18.0982 68.2416 18.0741 68.4856 18.0494H68.6567v.0488L68.6073 18.1717 68.5344 18.2934 68.4856 18.3675 68.4121 18.417 68.3145 18.4892 68.1922 18.538 67.9234 18.6356 67.5819 18.7091 66.8245 18.9043 66.0184 19.173 65.8232 19.2218 65.6273 19.2466 65.4321 19.2706 65.2122 19.2953H64.7483L64.2838 19.3194 63.6975 19.3936 63.1614 19.4658 62.7209 19.5641 62.4522 19.5881 62.2811 19.6129 62.1588 19.6617 62.0131 19.7592 61.9883 19.8087 61.9636 19.8575 61.9883 19.8809 62.0131 19.9063 62.5498 19.9551 63.5271 20.0032H64.3085L64.6748 20.028H65.0899L65.4809 20.0032 65.9943 19.9297 66.6534 19.8328 67.2403 19.7338 67.5819 19.6617 67.8258 19.5881 68.2162 19.4177 68.6567 19.1978 69.0478 18.9531 69.3646 18.8067 69.7068 18.7091 70.0732 18.4645 70.4154 18.2446 70.5371 18.1964 70.6834 18.2212 70.8305 18.2446 70.9762 18.3188 71.2456 18.4645 71.4408 18.5868H71.5384L71.6119 18.5634 71.6607 18.538 71.7824 18.4645 71.8806 18.3428 71.9776 18.1964 72.027 18.0494 72.0511 17.9036 72.027 17.7559 71.9776 17.7319 71.9294 17.6831H71.8559L71.7583 17.659 71.5624 17.6343 71.3432 17.6102H71.2215L71.1961 17.6343 71.1721 17.659V17.6831h-.0488L71.0992 17.6343 71.1233 17.5614 71.1961 17.4143 71.3432 17.2192 71.5143 16.9992 71.9047 16.5594 72.1981 16.1931 72.2957 16.0467 72.3439 15.8997 72.2957 15.6563 72.1487 15.4117 71.9776 15.1924 71.8559 14.9966 71.7583 14.9231 71.6607 14.899 71.5143 14.9471 71.3185 14.9966l-.1464.0488L71.0992 15.0942 71.0498 15.1182 71.0257 15.167V15.4364L71.001 15.5333 70.9522 15.6069 70.781 15.8997zM69.634 19.1978 69.5845 19.4177 69.511 19.9063 69.5357 20.2719 69.5598 20.7358 69.634 21.2245 69.7309 21.6155 69.8539 21.9578 69.9749 22.2746 70.0972 22.544 70.2202 22.7392 70.2931 22.8849 70.3412 23.032 70.3171 23.1048 70.2931 23.1302H70.1948L70.0732 23.0807 69.3405 22.4457 69.1206 22.2987 68.9007 22.2017 68.7055 22.1282 68.5832 22.0306 68.5097 21.9578 68.4615 21.8842 68.4368 21.8107V21.4197l.0488-.4633L68.5344 20.7606 68.5585 20.5895 68.6073 20.4183 68.6808 20.296 68.7543 20.052 68.8024 19.8575 68.8278 19.6617 68.8766 19.4658 68.9007 19.3936 68.9495 19.3194l.0488-.0488L69.0718 19.2218 69.4134 19.1978H69.634z" fill="#144e8c"/><path fill-rule="evenodd" clip-rule="evenodd" d="M77.8885 29.822 77.9868 29.8461 78.0837 29.8955 78.1572 29.9443 78.2067 29.9925 78.2548 30.066 78.2796 30.1395 78.3036 30.2124V30.2859L78.2796 30.3594 78.2067 30.3835H78.0108L77.7669 30.3354 77.5957 30.2612H77.5222L77.4487 30.2371H77.4006L77.3264 30.2612 77.2782 30.2859 77.2535 30.3354 77.2294 30.3594 77.2535 30.4082 77.2782 30.4564 77.3511 30.5058 77.4246 30.5306 77.5463 30.5787 77.8157 30.6515 78.1572 30.7498 78.3036 30.8233 78.4019 30.8969 78.45 30.9697 78.4747 31.0185 78.45 31.0673 78.4259 31.1168 78.3284 31.1649H78.2301L78.1084 31.1896H78.0349L77.9868 31.2137 77.9132 31.2632 77.8397 31.312 77.8157 31.336V31.3608L77.8397 31.3848 77.8638 31.4096 77.9621 31.4336 78.0837 31.4584 78.3531 31.4831H78.7187L78.817 31.5072 78.9634 31.5559 79.1098 31.6288 79.2562 31.6535H79.4273L79.5984 31.6288 79.696 31.6047 79.7455 31.58 79.7943 31.5319 79.8424 31.4831 79.8912 31.336 79.9654 31.092 80.0135 30.9938 80.087 30.9209H80.1606L80.2582 30.9697 80.4286 31.1168 80.5757 31.2632 80.7214 31.4096 80.9166 31.58 81.0877 31.7511 81.21 31.9223V31.9958L81.186 32.0439 81.1372 32.0693 81.0396 32.0934H80.8437L80.6485 32.0693 80.4045 32.0439 80.0623 32.0198 79.696 31.9958 79.329 31.9711 78.9881 31.9223 78.6459 31.8982H78.0837L78.0349 31.8487 77.9621 31.8247l-.1464-.1464L77.5717 31.4584l-.2453-.1952L77.1071 31.1408 76.6673 30.9209 76.448 30.7745 76.2281 30.6034l-.1952-.1952L75.813 30.1636 75.69 30.066 75.5931 29.9925 75.4708 29.9684H75.3972L75.3237 29.9925 75.2749 30.066V30.1395L75.3237 30.2612 75.5196 30.3835 75.7147 30.4818 75.8371 30.6515 76.0329 30.8721 76.2522 31.092 76.4961 31.2872 76.9607 31.6535 77.2294 31.8247 77.3023 31.8735V31.8982L77.2294 31.9223 77.0583 31.9711 76.9607 31.9958h-.3416L76.448 31.947 76.1058 31.8735 75.9099 31.7999 75.7635 31.703 75.5931 31.58 75.5196 31.5072 75.422 31.4831 75.3484 31.4336H75.2508L75.0797 31.4584 74.9086 31.4096 74.7381 31.336 74.5423 31.2137 74.3959 31.1168 74.176 30.9938l-.244-.1464L73.688 30.7498 73.4681 30.6515 73.321 30.6281 73.1018 30.5058 72.8819 30.3106 72.662 30.0907 72.5149 29.8955 72.442 29.7732 72.3685 29.6509 72.2709 29.5533 72.1981 29.5045 72.1245 29.5292 72.0029 29.6021 71.9293 29.6997 71.8805 29.7732 72.0029 30.0907 72.1733 30.3835 72.2468 30.5058 72.3438 30.6034 72.442 30.7257 72.5396 30.7986 72.7836 30.9938 73.053 31.1408l.488.2928L73.932 31.703 74.0543 31.8247 74.1519 31.947 74.2007 32.0198V32.0934L74.176 32.1422 74.1519 32.191 74.0784 32.2398 74.0055 32.2892 73.8832 32.3862 73.7121 32.5091 73.4681 32.6555 73.2234 32.8019 72.9059 32.8755 72.6138 32.9236 72.418 32.9964 72.3197 33.0212 72.2709 32.9964 72.1981 32.8995 72.1245 32.8019 72.051 32.6555 71.9293 32.3862 71.8077 32.1422 71.7582 32.0693 71.7094 32.0439h-.0488L71.6366 32.0693 71.5871 32.1662 71.5624 32.2645 71.5871 32.3862 71.6366 32.6061 71.7094 32.8995 71.7582 33.2164 71.7823 33.5345 71.8077 33.7545 71.8317 33.8026 71.8558 33.8267 71.9046 33.8768 71.9534 33.9009 72.0998 33.9249 72.2468 33.9496 72.5396 33.9249 72.7348 33.8768 73.0042 33.7545 73.3952 33.5345 73.8103 33.2906 74.1031 33.1435 74.3712 32.9724 74.6887 32.7037 74.7622 32.6301 74.8357 32.582 74.9086 32.5573 74.9821 32.5332H75.0556L75.1285 32.582 75.2508 32.6555 75.3484 32.7772 75.422 32.8507 75.4467 32.8995 75.4708 32.9483 75.4467 32.9724 75.3484 32.9964 75.2508 33.0212H74.9086L74.8357 33.0459H74.7622L74.7381 33.0706V33.0954L74.8357 33.1682 75.0556 33.2658 75.3237 33.4115 75.6419 33.5833 75.9099 33.7785 76.081 33.8768H76.1546L76.2281 33.8521 76.301 33.7785 76.3745 33.6569 76.4233 33.5098V33.3387L76.3992 33.1682 76.3498 32.9964 76.2769 32.8253 76.2034 32.7037 76.1058 32.6061 76.057 32.582 75.9347 32.5332 75.8371 32.4597 75.7147 32.3133 75.5931 32.1422 75.5684 32.0934 75.5436 32.0693 75.5684 32.0439V32.0198L75.6659 31.9958 75.7883 32.0198 76.1058 32.0934 76.4233 32.191 76.692 32.2892 77.0095 32.3862 77.1559 32.4844 77.3264 32.582 77.4981 32.7037 77.6933 32.8755 77.8638 33.0459 78.0108 33.1435l.1464.0488L78.2548 33.2164 78.4259 33.1923 78.5971 33.1435 78.6459 33.0954V32.9483L78.6218 32.8507 78.573 32.7284 78.5483 32.6301 78.5235 32.5091 78.5483 32.3862 78.573 32.3133l.0488-.0488L78.6947 32.2398H78.7923L79.061 32.2645 79.4032 32.2892H79.6225L79.8424 32.3374 80.0382 32.3862 80.2582 32.4597 80.6733 32.6301 81.0396 32.7525 81.21 32.8019 81.3811 32.8253 81.577 32.8507l.1952-.0488L81.9433 32.7284 82.089 32.6301 82.1873 32.4844 82.2361 32.3374 82.2601 32.215 82.2849 32.0439 82.2601 31.947 82.2361 31.8735 82.1632 31.7999 82.065 31.7511 81.7481 31.5559 81.3571 31.2872 80.966 31.0433 80.7214 30.8969H80.6485L80.5757 30.8474 80.5021 30.7986l-.0488-.0488L80.4045 30.7017 80.3805 30.6281 80.3557 30.5787 80.3805 30.5058V30.3835L80.331 30.2612V30.066L80.3805 29.9925 80.4774 29.8955 80.5516 29.8708 80.6245 29.8461 80.7956 29.8708l.1952.0488L81.2588 30.0172 81.577 30.1155 81.9186 30.2371 82.212 30.3594l.1464.0488L82.4553 30.4323H82.5543L82.6271 30.4082 82.7735 30.3354 82.8952 30.3106H82.9446L83.0182 30.2859 83.0663 30.1883 83.1158 29.9684 83.1398 29.6509 83.1158 29.4804 83.0663 29.3334 83.0182 29.2358 82.9446 29.187 82.8711 29.1623H82.7982L82.7494 29.187 82.7254 29.211 82.7 29.2846 82.6271 29.3334 82.4801 29.3822 82.212 29.5533 82.1138 29.5774 81.9921 29.6261H81.845L81.6987 29.6509 81.3571 29.6261 80.9908 29.6021 80.3557 29.5045 80.0382 29.431 79.9894 29.4062 79.9406 29.3581 79.9152 29.3093 79.8912 29.2358 79.8424 29.1135 79.7695 28.943 79.6719 28.82 79.5743 28.699 79.4761 28.6248 79.3544 28.552 79.329 28.5272 79.305 28.4537v-.1464L79.3544 28.1609 79.3792 28.1121v-.0488L79.4273 27.9657 79.452 27.8929V27.8187L79.4273 27.7458 79.4032 27.6482l-.0488-.0488L79.305 27.5506H79.1833L79.1338 27.5994 79.061 27.6482 79.0122 27.7218 78.9634 27.8434 78.7923 28.1121 78.5235 28.4784 78.2301 28.8447 77.9621 29.1382 77.8157 29.2598 77.7174 29.3334 77.5957 29.3822 77.4981 29.4062 77.4246 29.3822 77.3758 29.3581 77.3511 29.3334 77.3758 29.2846 77.5222 28.9183 77.6205 28.5767 77.6445 28.4784V28.332L77.5957 28.2097 77.5222 28.0386 77.4734 27.9905 77.4487 27.9657 77.4006 27.9905 77.3758 28.0386 77.2782 28.1857 77.1806 28.4296 77.0583 28.6496 76.936 28.8447 76.8143 29.0159 76.692 29.0894 76.5944 29.1382 76.5209 29.187 76.448 29.2598 76.3498 29.3822 76.301 29.455 76.2769 29.4804 76.301 29.5292 76.3257 29.5533 76.4233 29.5774 76.5697 29.6261 76.8391 29.6997 77.2054 29.7485 77.5957 29.7973 77.8885 29.822zM78.2301 29.6997H78.4019l.2928-.0488L78.7435 29.6261 78.7923 29.5533 78.817 29.4804V29.2846l-.0488-.0488L78.6699 29.211H78.573L78.45 29.2846 78.3531 29.3334 78.3036 29.431 78.2548 29.5045 78.2301 29.6261V29.6997zM78.8898 29.1135 78.8658 29.0894 78.841 28.9911 78.817 28.943V28.8935L78.841 28.8447l.0488-.0488L79.0122 28.7231 79.085 28.6736 79.1098 28.6496H79.1592L79.1833 28.6736 79.2074 28.7471 79.2809 28.8688 79.3544 28.9911 79.3792 29.0647V29.1623L79.3544 29.187 79.305 29.2598 79.2321 29.3093 79.1338 29.2846 79.0362 29.2358 78.9139 29.1382 78.8898 29.1135zM79.0122 29.8461 78.9881 29.7485 79.0122 29.6021 79.0362 29.5533l.0488-.0488H79.1592L79.2562 29.5533 79.4273 29.6756 79.5496 29.7732l.0488.0488L79.6225 29.8708 79.6472 29.9196V30.0907L79.6225 30.1636 79.5984 30.1883H79.5743L79.5496 30.1636 79.5001 30.1395 79.3544 30.066H79.2562L79.1592 29.9925 79.0122 29.8461zM78.6947 31.092 78.7187 30.9938 78.7682 30.8721l.0488-.0488L78.841 30.7745 78.9139 30.7498H78.9881L79.2562 30.7257 79.5001 30.7017 79.5984 30.7498 79.696 30.8721 79.7201 30.9209V30.9938L79.696 31.0185 79.6472 31.0433 79.5496 31.092 79.4032 31.1649 79.3544 31.1896 79.2562 31.2137H79.085L78.7923 31.1408 78.6947 31.092z" fill="#144e8c"/><path fill-rule="evenodd" clip-rule="evenodd" d="M25.0594 74.5174 24.3262 73.8824 26.1824 72.0997l-1.123 2.4177zM23.8623 74.2982 24.7901 75.1037l-1.0502 2.1737L24.3021 77.5956l2.8088-6.1062L26.4759 71.0743 21.4686 75.7881 21.9572 76.1304l1.9051-1.8322zM20.2714 74.8844 20.7847 75.2507 25.5474 70.3905 25.034 70.0241 22.0301 72.9793 23.9846 69.3644 23.2513 68.7294 18.4886 73.3944 19.0261 73.8583l4.1523-4.2011-2.907 5.2272zm-2.5889-2.1985L17.2433 72.2708l4.9091-4.494L22.6163 68.1926 17.6825 72.6859zm-1.0983-1.0742L16.1685 71.2207l2.5648-2.2714-1.0261-1.2701-2.7593 2.1979L14.5321 69.4139l5.1531-4.1524L20.1009 65.7254 18.1718 67.2882l1.0254 1.2701L21.1511 66.7755 21.5662 67.2153l-4.982 4.3964zm-1.4411-4.2988L15.4359 67.8504 15.2166 67.9968 15.0208 68.1191 14.8256 68.2167 14.6544 68.2895 14.4833 68.3383 14.3369 68.3878 14.1658 68.4125H14.0194L13.8971 68.3878 13.7507 68.3383 13.6524 68.2895 13.5308 68.2167 13.4332 68.1432 13.3349 68.0215 13.238 67.8992 13.1645 67.7521 13.091 67.5816 13.0181 67.3865 12.9934 67.2153V67.0442L13.0181 66.849 13.0428 66.6779 13.1157 66.4827 13.2133 66.3109 13.3349 66.0917 13.5061 65.8724 13.726 65.6525 13.9466 65.4079 14.2146 65.1632l.2928-.244L14.8008 64.6753 15.1183 64.4553 15.4599 64.2354 15.7781 64.0155 16.4125 63.6739 16.7306 63.5509 17.0234 63.4293 17.2921 63.3558 17.5368 63.307H17.7072L17.8777 63.3317 18.0495 63.3805 18.1959 63.454 18.3182 63.5509 18.4398 63.6492 18.5381 63.7956 18.6357 63.9667 18.7092 64.1131 18.758 64.2602 18.8062 64.5529V64.8464L18.758 64.9921 18.7092 65.1392 18.6598 65.2855 18.5862 65.4079 18.4886 65.5543 18.367 65.7007 18.2447 65.823 18.0976 65.9453 17.9519 66.0917 17.7808 66.214 17.4873 65.6766 17.7567 65.4567 17.9766 65.2615l.1464-.1952L18.1959 64.8952 18.2447 64.7241V64.577L18.1959 64.4553 18.1471 64.3083 18.0495 64.1619 17.9271 64.0402 17.8536 64.0155 17.7567 63.9908 17.6584 63.9667H17.5368L17.4145 63.9908 17.2433 64.0155 17.0722 64.089 16.877 64.1619 16.51 64.3571 16.1444 64.5529 15.7781 64.7481l-.3422.244L15.0936 65.2368 14.7768 65.4807 14.4586 65.7495 14.1658 66.0188l-.2934.3416L13.7748 66.4827 13.6772 66.6291 13.6284 66.7508 13.5796 66.8731 13.5555 66.97V67.069L13.5796 67.2641 13.6284 67.4353 13.7012 67.5569 13.7995 67.6545 13.9212 67.7281 14.0676 67.7521h.1958L14.5074 67.6792 14.8008 67.5329 15.1431 67.3129zM10.7955 64.4065l5.9592-3.151L16.4125 60.7181l-2.4913 1.27L13.0669 60.3518l2.4666-1.1237L15.2647 58.6673 9.1585 61.4754 9.45195 62.0376l2.97995-1.4659L13.3844 62.2816 10.478 63.8691 10.7955 64.4065zM13.5061 56.2241 14.0194 56.0042 15.0936 58.3738l-.5367.1952L14.1417 57.6653 8.47468 59.9855 8.20663 59.3504l5.69047-2.2707L13.5061 56.2241zM7.10704 56.6887 7.2053 56.9327 7.35103 57.1526 7.42522 57.2749 7.52215 57.3478 7.62041 57.4447 7.74207 57.5189 7.98672 57.6165 8.1331 57.6406 8.27949 57.6653H8.42655L8.57227 57.6406 8.71933 57.6165l.17112-.0488 5.03075-1.8075L13.7012 55.174 8.67053 56.9567 8.49941 57.0062H8.32829L8.1819 56.9815l-.14639-.0488L7.88845 56.8351 7.76613 56.7368 7.69327 56.6152l-.0488-.1464L7.62041 56.3224V56.1753L7.64447 56.0042 7.718 55.8331 7.79153 55.6874 7.91319 55.5403 8.05958 55.4427 8.20663 55.3451l4.98257-1.6858-.1464-.5608L7.91319 54.783 7.76613 54.8812 7.62041 54.9541 7.52215 55.0764 7.40049 55.174 7.32696 55.2963 7.23004 55.4427 7.18057 55.565 7.08298 55.8578 7.05892 55.9801 7.03418 56.1272 7.05892 56.42 7.10704 56.6887zM6.54555 52.7315 6.59368 52.9762 6.69194 53.0731 6.74074 53.1473 6.81426 53.1954 6.91186 53.2442 7.03418 53.2937l.12166.0488L7.32696 53.3665H7.718l.34158-.0488L8.59767 53.2442 9.1585 53.1473 9.57427 53.049 9.98937 52.9274 10.478 52.805 10.9412 52.658 11.2594 52.5363 11.4546 52.4381 11.6257 52.3652 11.7474 52.2676 11.8697 52.17 11.9432 52.0717 12.0168 51.9748 12.0656 51.8766 12.0896 51.8037 12.1384 51.6814V51.5591L12.0896 51.4367 11.992 51.3398 11.9432 51.2903 11.8697 51.2175 11.7728 51.1687 11.6505 51.1199 11.5275 51.0704 11.357 51.0464h-.3904L10.6003 51.0704 10.1598 51.1199 9.67186 51.2175 9.1585 51.3151 8.67053 51.4615 8.20663 51.5838 7.76613 51.7302l-.34091.1464L7.23004 51.9748 7.08298 52.0477 6.93659 52.1453 6.81426 52.2429 6.74074 52.3411 6.66721 52.4381 6.61908 52.5363 6.56961 52.6339 6.54555 52.7315zM6.03285 52.9762 6.00812 52.7803V52.6092L6.05759 52.3171 6.13045 52.1947 6.22804 52.0717 6.32563 51.9254 6.44796 51.8037 6.64381 51.6326 6.86306 51.4855 7.13178 51.3639l.26871-.1464L7.718 51.0952 8.03551 50.9735 8.37709 50.8752 8.71933 50.7776 9.40382 50.6313 10.0629 50.5337 10.6973 50.4601 11.2347 50.4354 11.4793 50.4601 11.7233 50.4842 11.968 50.5577 12.1632 50.6553 12.3336 50.8024 12.4807 50.9735 12.5542 51.0704 12.603 51.1687 12.6518 51.2903 12.6759 51.4127 12.7246 51.6326V51.8037L12.6999 51.9748 12.6518 52.1212 12.5783 52.2676 12.4807 52.3899 12.3831 52.5363 12.2367 52.658 12.0656 52.805 11.8209 52.9274 11.5034 53.0731 11.1618 53.2201 10.7955 53.3665 10.4292 53.4888 9.69593 53.684 9.32962 53.7576 8.93858 53.8304 8.52414 53.8792 8.1331 53.9287 7.74207 53.9534 7.37576 53.9775 7.08298 53.9534 6.86306 53.9039 6.69194 53.8552 6.54555 53.7816 6.42389 53.684 6.3009 53.5864 6.22804 53.4641 6.15451 53.3425 6.08165 53.1713 6.03285 52.9762zm4.73865-2.9318L10.6973 49.3853 10.8196 49.3612 10.9666 49.3371 11.1124 49.3117 11.2594 49.2389 11.4065 49.142 11.5034 49.019 11.5522 48.9461 11.5776 48.8478 11.601 48.7509V48.6527L11.5522 48.4327 11.5034 48.2616 11.4305 48.1406 11.357 48.0424 11.2347 47.92 11.1124 47.8224 10.9666 47.7496 10.8443 47.7001 10.6973 47.6761h-.244L10.3069 47.7242 10.0382 47.8472 9.76946 48.0176 9.50074 48.2376 9.2327 48.4815 8.74339 49.0437 8.30423 49.6052 8.08431 49.8739 7.91319 50.0938 7.74207 50.2643 7.59568 50.4113 7.44929 50.5089 7.27816 50.5577l-.21924.0488-.26939.0488H6.64381l-.19585-.0488-.21992-.0488L6.00812 50.4354 5.8858 50.3625 5.7882 50.289 5.69061 50.1914 5.61775 50.0691 5.54422 49.9474 5.47069 49.7763 5.44663 49.6299 5.4219 49.4588 5.39716 49.1901 5.4219 48.9702 5.47069 48.7509 5.54422 48.5798 5.64181 48.4087 5.73941 48.2616 5.86173 48.1647 5.98339 48.0664l.26938-.1464L6.49675 47.8224 6.74074 47.7737 6.96065 47.7496 7.01012 48.3839l-.29345.0488L6.47202 48.5056 6.27684 48.5798 6.13045 48.7015 6.03285 48.8238 5.98339 48.9949 5.93459 49.166V49.3853L5.95932 49.5564 6.03285 49.6781 6.08165 49.801 6.17857 49.8739 6.3009 49.9234 6.42389 49.9715 6.56961 49.9962h.14706L6.93659 49.9715 7.10704 49.898 7.2541 49.8251 7.37576 49.7282 7.76613 49.2629 8.15717 48.799 8.57227 48.3358 8.98804 47.92 9.20796 47.7242 9.45195 47.5544 9.69593 47.4073 9.96464 47.285 10.2334 47.2115 10.5261 47.1634H10.8443L11.1866 47.1874 11.3075 47.2362 11.4065 47.3091 11.5275 47.3826 11.6257 47.4561 11.7233 47.529 11.8209 47.6273 11.8944 47.7496 11.968 47.8712 12.0408 48.0176 12.0896 48.1647 12.1137 48.3599 12.1384 48.531v.3904L12.0896 49.0918 12.0408 49.2389 11.968 49.3612 11.8944 49.4829 11.7968 49.6052 11.6986 49.6781 11.4546 49.8251 11.2347 49.9234 10.9914 49.9962 10.7715 50.0444zM79.4521 49.4347 82.5049 49.9962 82.6025 49.3612 79.5002 48.775 76.1794 47.0651 76.1299 47.7242 78.7683 49.019 75.8371 49.5564 75.7148 50.2402 79.4521 49.4347zm2.7841 2.0508L78.9882 50.7776 78.7188 52.2181 79.2562 52.3411 79.4033 51.5838l.2928.0488L80.0871 51.7061 80.4534 51.779 80.6974 51.8518 80.942 51.9501 81.1372 52.0477 81.2101 52.1212 81.2836 52.1947 81.3331 52.2676 81.3812 52.3411 81.43 52.4381V52.7803L81.3812 52.9514 81.2836 53.0985 81.2101 53.1713 81.1372 53.2201 81.0396 53.2689 80.942 53.2937 80.7215 53.3425 80.5022 53.3913H80.0136L79.4762 53.3425 78.914 53.2689 78.3532 53.1473 77.8157 53.0002 77.3512 52.8538 76.9608 52.6827 76.7897 52.6092 76.6192 52.5116 76.4722 52.414 76.3746 52.3411 76.277 52.2429 76.2282 52.1453 76.1794 52.0717 76.1299 51.9748 76.1059 51.8278V51.5838L76.1546 51.4615 76.2034 51.3639 76.277 51.2663 76.3993 51.1927 76.545 51.1199 76.7161 51.0704H76.912L77.1312 51.0952 77.3759 51.1439 77.4982 50.5089 77.1807 50.4601 76.8873 50.4354h-.2928L76.3258 50.5089 76.1546 50.5577 76.0083 50.6553 75.8619 50.7776 75.7395 50.8993 75.6172 51.0464 75.5437 51.2175l-.0488.1464L75.4708 51.535V51.7302L75.4949 51.9254 75.5196 52.0965 75.5932 52.2676 75.642 52.4381 75.7395 52.5851 75.8619 52.7074 75.9842 52.8538l.1952.1464L76.4234 53.1473 76.6921 53.2689 77.3264 53.5136 77.6934 53.6352 78.0597 53.7088 78.426 53.8064 78.7923 53.8792 79.1834 53.9287 79.5497 53.9775 79.8913 54.0015 80.2335 54.0263 80.5263 54.0015 80.8197 53.9775l.244-.0488L81.2101 53.8792 81.3571 53.8064 81.5029 53.7335 81.6259 53.6105 81.7235 53.4888 81.8211 53.3425 81.8939 53.1713 81.9434 52.9762 81.9674 52.8291v-.2928L81.9434 52.3899 81.8939 52.2676 81.8451 52.1453 81.7963 52.0236 81.6987 51.9013 82.1392 51.9989 82.2362 51.4855zm-2.6618 5.6424h-.4893L78.8899 57.0797 78.6219 57.0296 78.2796 56.9327 77.9133 56.8103 77.5717 56.6887 77.1807 56.5176 76.6921 56.3224 75.9588 55.9554l-.3416-.244L75.3973 55.4915l-.1464-.1952L75.1526 55.1011 75.1286 55.0029V54.9053L75.1039 54.8077 75.1286 54.7101 75.1526 54.6118 75.2021 54.539 75.2509 54.4654 75.3238 54.3919 75.422 54.3197 75.5196 54.2696 75.642 54.2215 75.7883 54.1967 75.9347 54.1727h.1464L76.2522 54.1967 76.4722 54.2462 76.7897 54.3197 77.2536 54.4902 77.7415 54.6613 78.1573 54.8077 78.4748 54.9541 78.8411 55.1011 79.1593 55.2469 79.4033 55.3692 79.7455 55.6138 79.9654 55.8331 80.0624 55.9313 80.1359 56.0289 80.2088 56.1272 80.2582 56.2241 80.2823 56.3464 80.3064 56.4434 80.3311 56.5416 80.3064 56.6392 80.2823 56.7134 80.2335 56.8103 80.1606 56.8839 80.0871 56.9567 79.9895 57.0062 79.8672 57.0543 79.7201 57.1038 79.5744 57.1279zM80.8197 56.9567 80.7469 57.1279 80.6486 57.299 80.5263 57.4206 80.3806 57.5189 80.2088 57.6165 80.0383 57.6653 79.8425 57.7381 79.672 57.7629 79.4521 57.7876H79.2322L78.9635 57.7381 78.67 57.69 78.035 57.543 77.7175 57.4206 77.4006 57.299 76.6921 57.0062 75.9842 56.6392 75.666 56.4434 75.3732 56.2736 75.1286 56.0777 74.9822 55.9073 74.8599 55.7602 74.7382 55.5891 74.6654 55.3939 74.5918 55.1981 74.5424 55.0029 74.5183 54.8077V54.6118L74.5664 54.3919 74.6406 54.2215 74.7382 54.0503 74.8599 53.9039 75.0069 53.8064 75.1526 53.7088 75.3238 53.6352 75.4949 53.5864 75.6901 53.5624 75.91 53.5376 76.1794 53.5624 76.4962 53.6352 76.8625 53.7088 77.6205 53.9287 78.3284 54.1967 78.9635 54.4902 79.5497 54.783 79.8184 54.93 80.0383 55.1011 80.2335 55.2469 80.3806 55.418 80.5022 55.5891 80.6245 55.7602 80.6974 55.9313 80.7957 56.1513 80.8438 56.3464 80.8685 56.5416v.1952L80.8197 56.9567zM73.7122 56.7368 73.4682 57.323 79.2562 60.6699 80.2088 58.422 79.7201 58.1539 78.9882 59.8143 73.7122 56.7368zM77.7175 62.5743 77.7669 62.3792 77.8157 62.208 77.7917 62.0864V61.9881L77.7415 61.8665 77.6934 61.7441 77.6205 61.6218 77.3759 61.329 77.2295 61.1579 76.9608 60.938 76.5698 60.6205 76.1546 60.303 75.8131 60.059 75.4468 59.8143 75.0557 59.5463 74.6654 59.2776 74.1761 59.0329 74.0056 58.9841l-.1464-.0488L73.7122 58.9106H73.5905L73.4922 58.9353 73.3953 58.9601 73.3211 59.0089 73.1995 59.1305 73.0771 59.2776 73.0043 59.4487 72.9795 59.6439V59.7415L73.0043 59.8391 73.1019 60.0837 73.1747 60.2054 73.273 60.3518 73.3953 60.4988 73.541 60.6699 73.8104 60.8892 74.1761 61.182 74.5664 61.5001 74.9087 61.7441 75.2269 61.9641 75.6172 62.208l.3416.1952L76.2282 62.5503 76.4481 62.6479 76.6921 62.7695 76.912 62.8678 77.0825 62.9166H77.2054L77.3024 62.8925 77.4006 62.8678 77.4735 62.819 77.5958 62.7214 77.7175 62.5743zM78.1573 62.8925 78.0597 63.063 77.9621 63.2094 77.8398 63.3317 77.6934 63.4293 77.5463 63.5028 77.4006 63.5509 77.2295 63.5757H77.0584L76.8391 63.5269 76.5698 63.4293 76.277 63.307 75.9347 63.1358 75.2509 62.7214 74.6159 62.3063 74.3224 62.0864 74.0056 61.8424 73.7122 61.5971 73.4194 61.329 73.15 61.0844 72.906 60.8411 72.7349 60.6205 72.6139 60.4006 72.515 60.2294 72.4668 60.0343 72.418 59.8638V59.4968L72.4668 59.3264 72.515 59.1305 72.6139 58.9601 72.7108 58.7889 72.8332 58.6419 72.9548 58.4962 73.0771 58.3979 73.2235 58.325 73.3953 58.2762H73.7362L73.9321 58.3003 74.2008 58.3979 74.4695 58.5202 74.787 58.6913 75.4708 59.0824 76.1059 59.4968 76.7161 59.9614 77.3264 60.4988 77.5958 60.7428 77.8398 61.0109 78.035 61.2314 78.1573 61.4266 78.2549 61.6218 78.3037 61.7929 78.3532 61.9881V62.3544L78.3037 62.5255 78.2549 62.7214 78.1573 62.8925zM76.5698 65.5295 71.1961 63.063l4.3476 3.8836L75.2021 67.4593l-5.032-4.4939L70.7322 62.1352 75.2269 64.3571l-3.7126-3.3462L71.8078 60.4741 76.912 65.0175 76.5698 65.5295zM74.6406 68.1926 69.9268 63.2829 69.5357 63.7468 71.7336 65.9206 70.6834 67.2153 68.5097 65.0175 68.1433 65.5055 72.7596 70.3664 73.15 69.9018 71.0992 67.6545 72.1487 66.3604l2.1009 2.2954L74.6406 68.1926zM70.5858 69.853 70.8305 70.1953 71.0009 70.4881 71.1233 70.7568 71.1473 70.952V71.1471L71.1233 71.2942 71.0497 71.4158 70.9521 71.5382 70.8058 71.6358 70.6594 71.7093H70.4882L70.3659 71.6846 70.2683 71.6358 70.1219 71.5876 69.9996 71.4894 69.8292 71.3918 69.6821 71.2454 69.4629 71.0007 69.1694 70.6832 68.8766 70.3169 68.6072 69.9994 68.3633 69.6331 68.0705 69.218 67.8011 68.8276 67.6307 68.5095 67.5331 68.3143 67.4602 68.1191 67.386 67.9473 67.3619 67.8016 67.3372 67.6545 67.3131 67.5329 67.3372 67.4353 67.3619 67.337 67.4355 67.1659 67.5331 67.0202 67.6554 66.9466 67.753 66.8731 67.8746 66.8243 68.021 66.849 68.1921 66.8972 68.3633 67.0202 68.5832 67.2153 68.8024 67.4834 69.2182 67.0442 68.9495 66.7267 68.6808 66.4827 68.5344 66.3845 68.4121 66.3109 68.2657 66.2381 68.1433 66.214 68.021 66.1893H67.753L67.5083 66.2869 67.386 66.3604 67.2891 66.4339 67.1667 66.5556 67.0444 66.702 66.9468 66.849 66.8492 67.0202 66.7998 67.1906 66.7757 67.3617 66.751 67.5569v.1952l.0488.1952L66.874 68.1672 66.9709 68.4607 67.118 68.7788 67.3131 69.0957 67.5083 69.4379 67.7282 69.7802 67.9482 70.1211 68.1921 70.4393 68.6808 71.0255 69.1935 71.5629 69.4381 71.8069 69.658 72.0021 69.8773 72.1732 70.0732 72.2708 70.2443 72.3196 70.4154 72.369H70.5611L70.7322 72.3443 70.8793 72.2949 71.0257 72.222 71.1721 72.1237 71.4167 71.8804 71.5143 71.7588 71.5872 71.6117 71.6366 71.4653 71.6854 71.3423 71.7095 71.1725V70.8791L71.6854 70.7073 71.6366 70.5362 71.5872 70.3664 71.5143 70.1705 71.2944 69.8042 71.0257 69.4139 70.5858 69.853zM67.8506 74.9579l-3.5181-5.8141L66.116 67.6064 66.4575 68.1432 65.1387 69.2668l1.0508 1.8556L67.2403 70.2193 67.5819 70.7568 66.5317 71.6605l1.4412 2.369 1.4158-1.2213L69.7309 73.3463 67.8506 74.9579zM61.9148 71.6358 62.868 70.9767l3.1744 5.2265L66.5063 75.861 63.3559 70.6344 64.2837 69.9753 63.9422 69.4379l-2.3449 1.6604L61.9148 71.6358zM60.6695 79.3055l-2.492-6.2774L60.2296 71.9286 60.4983 72.5395 58.9355 73.3463 59.6681 75.0796 61.0358 74.347 61.2557 74.9579 59.8881 75.6899 61.1822 79.0361 60.6695 79.3055zm-2.1738.2928L58.3246 79.6471H58.1775L58.0806 79.6223 57.9823 79.5735 57.9095 79.5007 57.8119 79.4272 57.7143 79.3055 57.5913 79.1584 57.4944 78.9873 57.3961 78.7921 57.2504 78.4994 57.0793 78.0595 56.9329 77.6197 56.7858 77.2046 56.6642 76.8135 56.5418 76.3991 56.4202 76.0321 56.3466 75.7393 56.3219 75.4947 56.2972 75.2748V75.1037L56.3219 74.9332V74.8109L56.3707 74.6886 56.3948 74.5916 56.469 74.5174 56.59 74.3958 56.737 74.2982 56.8841 74.2494H57.0552L57.1521 74.2734 57.2256 74.3222 57.3232 74.3717 57.4215 74.4686 57.5184 74.5669 57.6167 74.7133 57.7143 74.8844 57.9583 75.373l.1464.3416L58.3981 76.496 58.5204 76.9118 58.6668 77.3757 58.7885 77.8149 58.862 78.1571 58.8867 78.4011 58.9108 78.5963v.3429L58.8867 79.0849 58.862 79.2072 58.8139 79.3055 58.7637 79.3784 58.6421 79.5007 58.4957 79.5983zM58.6668 80.1845 58.8379 80.0869 58.9837 79.9886 59.1067 79.8917 59.2042 79.7453 59.3018 79.5983 59.3747 79.4272 59.4242 79.232 59.4482 79.0361 59.473 78.7921 59.4482 78.4994 59.4001 78.1812 59.3259 77.8149 59.1548 77.0334 58.9355 76.2761 58.7885 75.8857 58.6668 75.5442 58.5204 75.2019 58.3734 74.8844 58.2029 74.5916 58.0559 74.3222 57.9095 74.1271 57.7624 73.9559 57.6408 73.8343 57.4944 73.7367 57.3473 73.6625 57.2009 73.6144 57.0305 73.5896H56.8593L56.713 73.6391 56.5171 73.6872 56.3707 73.7855 56.2243 73.8824 56.102 74.0054 55.9797 74.1271 55.9068 74.2982 55.834 74.4686 55.7845 74.6398 55.7604 74.8597 55.7357 75.0796 55.7604 75.3483 55.8085 75.6411 55.858 75.9833 56.0291 76.6912l.244.7333L56.5418 78.1812 56.8353 78.9145 56.981 79.232 57.1521 79.5007 57.2985 79.7453 57.4456 79.9158 57.5672 80.0381 57.7143 80.1357 57.8607 80.2086 58.0318 80.2574 58.1775 80.2821H58.3486L58.4957 80.2333 58.6668 80.1845zM52.5118 78.865 53.1709 82.016 53.7083 81.8449 53.0492 78.7193 53.489 74.8844 52.9509 75.0549 52.6334 77.986 51.4122 75.3971 50.8754 75.5682 52.5118 78.865zM47.9443 76.6671 47.8962 76.0321 50.582 75.6411l.0488.5869L49.5566 76.4472 50.3139 82.4552 49.7518 82.5535 48.9944 76.5208 47.9443 76.6671zM48.1642 82.7734 47.6027 76.0562 47.0406 76.1304 47.6027 82.8462 48.1642 82.7734zM41.7411 79.0361 41.8381 76.8135 42.3762 76.8383 42.5225 76.8623 42.6689 76.9359 42.7913 77.0334 42.8882 77.1805 42.9624 77.3269 43.0105 77.4974 43.0352 77.6925 43.0593 77.9131 43.0352 78.133 42.9624 78.377 42.8882 78.5963 42.7913 78.7921 42.693 78.9145 42.5713 79.012 42.4243 79.0609H42.2538L41.7411 79.0361zM43.5967 82.9686 42.8641 79.6223 42.9624 79.5735 43.0593 79.5007 43.1328 79.4272 43.2064 79.3543 43.4504 78.9632 43.5239 78.7193 43.5727 78.4994 43.6215 78.4746 43.6455 78.4258 43.6703 78.2547V77.5716L43.6215 77.3022 43.5486 77.0334 43.4256 76.7654 43.3528 76.6424 43.2552 76.5455 43.1576 76.4472 43.0352 76.3744 42.9129 76.3008 42.7913 76.252 42.6442 76.2032h-.1464L41.3006 76.1304 41.0079 82.8716 41.5947 82.8957 41.7157 79.6959 42.302 79.7206 42.9864 82.9445 43.5967 82.9686zm-5.764-.488L38.6389 75.8363 40.8615 76.1544 40.7886 76.8135 39.1275 76.5696 38.8829 78.7433 40.1282 78.9392 40.0553 79.5983 38.81 79.4272 38.4678 81.8944l1.7586.244L40.1529 82.7734l-2.3202-.2928zM36.1476 80.7467 36.1229 75.3483 35.5366 75.1531 35.659 82.0896 36.1964 82.2112l2.0274-6.4478L37.6857 75.6658l-1.5381 5.0809zM33.8274 81.625l1.3924-6.5454L34.6576 74.9332l-1.3923 6.5461L33.8274 81.625zM31.9952 81.0628 32.02 74.738l-1.734 5.7393L29.7486 80.2574l1.9291-6.3991L32.5326 74.1759 32.4598 79.3784l1.2694-4.8115L34.2666 74.7621 32.5326 81.2346 31.9952 81.0628zm-3.7854-1.4893h.244L28.5761 79.5254 28.6985 79.476 28.8201 79.4024 28.9424 79.3296 29.04 79.232 29.1376 79.1096 29.2359 78.9873 29.3328 78.8409 29.4063 78.6945 29.4799 78.5234 31.3114 73.712 30.774 73.4432 28.9665 78.2794 28.8696 78.4746 28.7713 78.621 28.6497 78.7433 28.5033 78.8409 28.3562 78.8897 28.2339 78.9145h-.1464L27.9652 78.865 27.8435 78.7921 27.7453 78.6945 27.6724 78.5481 27.5989 78.377 27.5501 78.2059V78.0101L27.5748 77.8149 27.6229 77.6197l1.8082-4.8355L28.9177 72.5148l-1.8068 4.8121-.0488.1952L27.0126 77.6925 26.9886 77.8637V78.377l.0488.1464L27.0621 78.6698 27.159 78.8409 27.2573 79.012 27.3549 79.1584 27.4772 79.2801 27.6229 79.4024 27.7947 79.476 27.9899 79.5495 28.2098 79.5735zM46.6495 78.0836H46.1368V77.8149L46.0392 77.3757 45.9657 77.2046 45.8681 77.0823 45.7465 76.9847 45.5994 76.9118 45.4289 76.8871 45.2331 76.9118 45.062 76.9606 44.9162 77.0582 44.818 77.1805 44.7211 77.3516 44.6709 77.5716 44.6228 77.8149V78.2547L44.6469 78.4011 44.6709 78.5234 44.7211 78.6457 44.8668 78.8409 44.9403 78.9145 45.0379 78.9873 45.1843 79.0849 45.4042 79.1832 45.5994 79.2801 45.7465 79.3543 46.0152 79.5007 46.2344 79.6711 46.4055 79.8423 46.5519 80.0381 46.6495 80.2574 46.7231 80.502 46.7719 80.7701V81.0628L46.7231 81.4793 46.6495 81.8697 46.6014 82.0401 46.5285 82.1872 46.4784 82.3335 46.3815 82.4552 46.3086 82.5782 46.1856 82.6758 46.088 82.7486 45.9657 82.8215 45.844 82.8957 45.6977 82.9445 45.5265 82.9686H45.1602L44.9403 82.9204 44.7692 82.8462 44.5981 82.7486 44.4517 82.6023 44.33 82.4311 44.2077 82.2112 44.1101 81.992 44.0847 81.7961 44.0366 81.5281V80.7701H44.5252V81.1611L44.5499 81.5033 44.5981 81.7721 44.6957 81.992 44.7451 82.0896 44.818 82.1624 44.8908 82.236 44.9891 82.2854 45.062 82.3095 45.1602 82.3583h.244L45.5994 82.3335 45.7705 82.26 45.9176 82.1872 46.0152 82.0648 46.1128 81.8944 46.1856 81.6992 46.2344 81.4793 46.2585 81.2346 46.2344 81.0147 46.2104 80.8195 46.1616 80.6725 46.088 80.5267 46.0152 80.4044 45.8928 80.2821 45.7705 80.2086 45.6241 80.1116h-.0488L45.5265 80.0381 45.4042 79.9886 45.2331 79.9158 44.8668 79.6959 44.6228 79.5254 44.5005 79.4272 44.3781 79.3055 44.3053 79.1584 44.2318 78.9873 44.1589 78.7921 44.1348 78.5729 44.1101 78.3282V78.0595L44.1348 77.6444 44.183 77.3022 44.2318 77.1317 44.3053 76.9847 44.3548 76.8383 44.4276 76.7166 44.5252 76.6183 44.5981 76.5208 44.7211 76.4232 44.818 76.3744 44.9403 76.3008 45.062 76.2761 45.3554 76.228 45.5025 76.252 45.6729 76.2761 45.7953 76.3008 45.9416 76.3496 46.0392 76.4232 46.1616 76.496 46.2585 76.5943 46.3327 76.7166 46.4055 76.8383 46.4784 76.9847 46.5285 77.1317 46.5767 77.3022 46.6255 77.6685 46.6495 78.0836z" fill="#144e8c"/><path fill-rule="evenodd" clip-rule="evenodd" d="M45.0137 69.8283 45.0378 69.7067 45.0618 69.6091 45.1113 69.5355 45.1601 69.462 45.2089 69.4139 45.2818 69.3892 45.38 69.3644h.1952L45.6481 69.3892 45.7223 69.438 45.7951 69.4867 45.8439 69.5596 45.868 69.6572 45.8927 69.7802 45.9175 69.9259V70.0482L45.868 70.1953 45.8192 70.317 45.7223 70.4146 45.624 70.5121 45.5264 70.5863 45.4288 70.6345 45.3072 70.6592V70.7568L45.5264 70.7815 45.6975 70.8056 45.8192 70.8791 45.9415 70.952 46.015 71.0496 46.0879 71.1472 46.1367 71.2454 46.1614 71.3678V71.5629L46.1367 71.6605 46.1126 71.7588 46.0632 71.8557 45.9903 71.954 45.9175 72.0268 45.8439 72.0756 45.7463 72.1492 45.6481 72.1732 45.5264 72.198 45.4041 72.222 45.3072 72.0268 45.233 71.954 45.1842 71.9286 45.1113 71.9045 45.0378 71.9286 44.9649 71.978 44.9161 72.0509 44.8907 72.1492V72.2467L44.9402 72.2949 45.0137 72.3691 45.1113 72.4419 45.2089 72.466 45.2818 72.5148H45.5752L45.7463 72.466 45.9175 72.3931 46.0879 72.2708 46.2102 72.1238 46.3326 71.978 46.4295 71.7829 46.4783 71.6117V71.4159L46.4542 71.2207 46.4295 71.1224 46.3326 70.9272 46.2584 70.8544 46.1614 70.7568 46.0632 70.6833 45.9656 70.6104 45.8192 70.5362 46.015 70.3905 46.1614 70.2194 46.2343 70.0482 46.2831 69.8771v-.1464L46.2584 69.5596 46.2102 69.4139 46.1367 69.2909 46.015 69.194 45.8927 69.0957 45.7704 69.0469 45.624 69.0229 45.4529 69.0469 45.3072 69.0957 45.1601 69.194 45.0378 69.3397 44.9649 69.438 44.9402 69.5596 44.9161 69.7067 44.8907 69.8531 45.0137 69.8283zm-2.6136-.244L42.3272 69.438 42.2049 69.3397 42.1561 69.3156 42.0826 69.2909h-.1464L41.8379 69.3156 41.7898 69.3397 41.7156 69.4139 41.6675 69.4867 41.6428 69.5843 41.618 69.7307 41.5946 69.8531V70.317L41.6428 70.6345 41.6916 70.7815 41.7651 70.8791 41.8379 70.9272 41.8874 70.952H42.0579L42.2049 70.9032l.1464-.0488L42.4489 70.7568 42.473 70.7073 42.4977 70.6345 42.5224 70.4633 42.5472 70.2194 42.5224 70.073 42.4977 69.9018 42.4489 69.7548 42.4001 69.5843zM41.3252 72.466V72.3691L41.5204 72.2949 41.6916 72.222 41.8627 72.1238 41.985 71.978 42.1561 71.7334 42.3018 71.4894 42.4001 71.1966 42.473 70.9272 42.3018 71.0255 42.1809 71.1224 42.1067 71.1472 42.0338 71.1726H41.8379L41.7156 71.1472 41.618 71.0743 41.5204 71.0008 41.4476 70.8544 41.3747 70.7073 41.3005 70.5362 41.2764 70.341v-.1952L41.3005 69.9754 41.35 69.7802 41.3988 69.6091 41.4716 69.438 41.5452 69.3156 41.618 69.2428 41.7156 69.1692 41.7898 69.1204 41.9609 69.0469h.244L42.3018 69.071 42.4001 69.1204 42.473 69.1692 42.6194 69.3397 42.7423 69.5355 42.8393 69.7548 42.9128 70.0242 42.9375 70.317V70.6345L42.9128 70.9272 42.8393 71.2207 42.7911 71.3678 42.7176 71.5135 42.6441 71.6605 42.5472 71.7829 42.4489 71.9045 42.3272 72.0268 42.1809 72.1238 42.0579 72.222 41.8874 72.2949 41.7156 72.3691 41.5204 72.4419 41.3252 72.466zm-3.0039-.7072L38.2725 71.7829 38.2477 71.8069 38.1989 71.8316 38.1254 71.8557 37.9549 71.8316 37.735 71.8069 37.7103 71.9045 39.0051 72.2467 39.0298 72.1492 38.8587 72.0756 38.7364 72.0021 38.7116 71.954 38.6876 71.9045V71.8069L39.4442 68.9493 39.2009 69.0469 38.9315 69.0957 38.6628 69.1438 38.3948 69.1692 38.3701 69.2909H38.5659L38.7611 69.3156 38.8346 69.3644 38.8827 69.4139V69.5108L38.8587 69.6331 38.3213 71.7588zM49.3118 70.952 48.9214 69.3156 48.36 71.1966 49.3118 70.952zM49.0926 68.7535 49.6046 70.8791 49.874 70.8296 49.9716 71.1472 49.6788 71.1966 49.9228 72.1492 49.6293 72.222 49.3853 71.2695 48.2617 71.5382 48.1641 71.1966 48.9455 68.7789 49.0926 68.7535z" fill="#144e8c"/></svg>